<svg width="41" height="40" viewBox="0 0 41 40" fill="none" xmlns="http://www.w3.org/2000/svg">
<g filter="url(#filter0_i_1_4187)">
<g clip-path="url(#clip0_1_4187)">
<rect x="0.934082" width="40" height="40" rx="8" fill="#05041F" fill-opacity="0.08"/>
<rect x="1.43408" y="0.5" width="39" height="39" rx="7.5" stroke="white" stroke-opacity="0.08"/>
<rect x="0.934082" width="40" height="40" fill="url(#paint0_radial_1_4187)"/>
<g clip-path="url(#clip1_1_4187)">
<path d="M20.9341 11C18.5471 11 16.2579 11.9482 14.5701 13.636C12.8823 15.3239 11.9341 17.6131 11.9341 20C11.9341 22.3869 12.8823 24.6761 14.5701 26.364C16.2579 28.0518 18.5471 29 20.9341 29C23.321 29 25.6102 28.0518 27.298 26.364C28.9859 24.6761 29.9341 22.3869 29.9341 20C29.9341 17.6131 28.9859 15.3239 27.298 13.636C25.6102 11.9482 23.321 11 20.9341 11ZM23.3063 27.3372H23.2366C23.1842 27.3402 23.1317 27.3324 23.0825 27.3144C23.0332 27.2963 22.9882 27.2684 22.9501 27.2323C22.9149 27.1951 22.8875 27.1512 22.8695 27.1033C22.8514 27.0554 22.8431 27.0044 22.8451 26.9532V25.8988C22.8496 25.5485 22.8526 25.1937 22.8526 24.8368C22.8514 24.5757 22.8132 24.3161 22.7393 24.0658C22.6693 23.8126 22.5283 23.5849 22.3328 23.4095C22.8556 23.359 23.3695 23.2403 23.8613 23.0563C24.2762 22.8985 24.6515 22.6517 24.9608 22.3333C25.2661 22.013 25.4933 21.626 25.6246 21.2037C25.7842 20.6866 25.8602 20.1473 25.8496 19.6063C25.8525 19.2285 25.7864 18.8533 25.6546 18.4992C25.5206 18.1424 25.3181 17.8152 25.0583 17.5363C25.1144 17.3955 25.1551 17.2492 25.1798 17.0998C25.2046 16.9498 25.2173 16.7982 25.2173 16.6467C25.2173 16.4517 25.1948 16.2568 25.1498 16.067C25.109 15.8724 25.0535 15.6811 24.9841 15.4948C24.9576 15.4844 24.9293 15.4793 24.9008 15.4798H24.8183C24.6458 15.4812 24.4763 15.5097 24.3128 15.563C24.1327 15.6156 23.9565 15.6807 23.7856 15.758C23.6156 15.8342 23.45 15.9201 23.2898 16.0152C23.1286 16.1105 22.9861 16.202 22.8601 16.2867C21.5984 15.9351 20.2645 15.9351 19.0028 16.2867C18.8621 16.1927 18.7191 16.1022 18.5738 16.0152C18.4114 15.9193 18.243 15.8336 18.0698 15.7587C17.8993 15.6789 17.7225 15.6134 17.5411 15.563C17.3808 15.5101 17.2134 15.482 17.0446 15.4798H16.9621C16.9339 15.4794 16.9058 15.4844 16.8796 15.4948C16.8091 15.6814 16.7515 15.8725 16.7071 16.067C16.6666 16.2575 16.6471 16.4517 16.6463 16.6467C16.6463 16.7982 16.6591 16.9498 16.6846 17.0998C16.7093 17.249 16.7491 17.3953 16.8046 17.5363C16.5455 17.8156 16.3437 18.143 16.2106 18.5C16.078 18.8539 16.0112 19.2291 16.0133 19.607C16.0028 20.1452 16.0767 20.6817 16.2323 21.197C16.3681 21.6192 16.5946 22.007 16.8953 22.334C17.2066 22.6505 17.5816 22.8965 17.9948 23.057C18.4846 23.2445 18.9976 23.3645 19.5196 23.414C19.3738 23.5461 19.2582 23.708 19.1806 23.8888C19.1067 24.0675 19.0563 24.2551 19.0306 24.4468C18.7554 24.5785 18.4544 24.6477 18.1493 24.6493C17.866 24.6606 17.5863 24.5818 17.3506 24.4242C17.1244 24.2566 16.9329 24.0468 16.7866 23.8063C16.7211 23.7052 16.6479 23.6094 16.5676 23.5198C16.4829 23.4254 16.3895 23.3393 16.2886 23.2625C16.1892 23.1882 16.0802 23.1277 15.9646 23.0825C15.8508 23.0326 15.728 23.0068 15.6038 23.0068C15.5738 23.0075 15.5438 23.0105 15.5138 23.0142C15.4729 23.0141 15.432 23.0192 15.3923 23.0292C15.3574 23.0384 15.3244 23.0536 15.2948 23.0743C15.2814 23.0817 15.2701 23.0925 15.2622 23.1057C15.2543 23.1189 15.25 23.1339 15.2498 23.1493C15.253 23.1853 15.264 23.2203 15.2822 23.2517C15.3003 23.283 15.3251 23.31 15.3548 23.3307C15.4246 23.3862 15.4823 23.429 15.5288 23.459L15.5513 23.4747C15.6511 23.552 15.7471 23.6353 15.8378 23.7245C15.9218 23.798 15.9976 23.8812 16.0628 23.972C16.1303 24.0612 16.1888 24.1565 16.2361 24.2577C16.2908 24.3582 16.3486 24.4737 16.4093 24.605C16.5503 24.9605 16.8008 25.2612 17.1248 25.4637C17.4646 25.646 17.8456 25.7367 18.2318 25.727C18.3623 25.727 18.4936 25.7195 18.6233 25.7045C18.7523 25.6835 18.8806 25.6617 19.0096 25.6362V26.9435C19.0119 26.9962 19.0031 27.0488 18.9837 27.0979C18.9643 27.147 18.9348 27.1914 18.8971 27.2283C18.8593 27.2651 18.8143 27.2936 18.7648 27.3119C18.7153 27.3302 18.6625 27.3378 18.6098 27.3342H18.5633C16.8144 26.7692 15.3246 25.5984 14.3623 24.0325C13.3999 22.4666 13.0283 20.6085 13.3143 18.7929C13.6003 16.9774 14.5251 15.3235 15.9222 14.1293C17.3193 12.935 19.0969 12.2788 20.9348 12.2788C22.7728 12.2788 24.5504 12.935 25.9475 14.1293C27.3446 15.3235 28.2694 16.9774 28.5554 18.7929C28.8414 20.6085 28.4697 22.4666 27.5074 24.0325C26.5451 25.5984 25.0553 26.7692 23.3063 27.3342V27.3372Z" fill="white"/>
</g>
</g>
</g>
<defs>
<filter id="filter0_i_1_4187" x="0.934082" y="0" width="40" height="40" filterUnits="userSpaceOnUse" color-interpolation-filters="sRGB">
<feFlood flood-opacity="0" result="BackgroundImageFix"/>
<feBlend mode="normal" in="SourceGraphic" in2="BackgroundImageFix" result="shape"/>
<feColorMatrix in="SourceAlpha" type="matrix" values="0 0 0 0 0 0 0 0 0 0 0 0 0 0 0 0 0 0 127 0" result="hardAlpha"/>
<feMorphology radius="0.82" operator="erode" in="SourceAlpha" result="effect1_innerShadow_1_4187"/>
<feOffset/>
<feGaussianBlur stdDeviation="4"/>
<feComposite in2="hardAlpha" operator="arithmetic" k2="-1" k3="1"/>
<feColorMatrix type="matrix" values="0 0 0 0 1 0 0 0 0 1 0 0 0 0 1 0 0 0 0.12 0"/>
<feBlend mode="normal" in2="shape" result="effect1_innerShadow_1_4187"/>
</filter>
<radialGradient id="paint0_radial_1_4187" cx="0" cy="0" r="1" gradientUnits="userSpaceOnUse" gradientTransform="translate(20.9341 40) scale(40)">
<stop stop-color="white" stop-opacity="0.04"/>
<stop offset="1" stop-color="white" stop-opacity="0"/>
</radialGradient>
<clipPath id="clip0_1_4187">
<rect x="0.934082" width="40" height="40" rx="8" fill="white"/>
</clipPath>
<clipPath id="clip1_1_4187">
<rect width="18" height="18" fill="white" transform="translate(11.9341 11)"/>
</clipPath>
</defs>
</svg>
