<svg width="41" height="40" viewBox="0 0 41 40" fill="none" xmlns="http://www.w3.org/2000/svg">
<g filter="url(#filter0_i_1_4171)">
<g clip-path="url(#clip0_1_4171)">
<rect x="0.934082" width="40" height="40" rx="8" fill="#05041F" fill-opacity="0.08"/>
<rect x="1.43408" y="0.5" width="39" height="39" rx="7.5" stroke="white" stroke-opacity="0.08"/>
<rect x="0.934082" width="40" height="40" fill="url(#paint0_radial_1_4171)"/>
<g clip-path="url(#clip1_1_4171)">
<g clip-path="url(#clip2_1_4171)">
<path d="M20.9339 17.7093C20.6331 17.7093 20.3352 17.7686 20.0572 17.8837C19.7792 17.9989 19.5267 18.1676 19.3139 18.3803C19.1012 18.5931 18.9324 18.8456 18.8173 19.1236C18.7022 19.4016 18.6429 19.6995 18.6429 20.0003C18.6429 20.3012 18.7022 20.5991 18.8173 20.8771C18.9324 21.155 19.1012 21.4076 19.3139 21.6203C19.5267 21.833 19.7792 22.0018 20.0572 22.1169C20.3352 22.2321 20.6331 22.2913 20.9339 22.2913C21.5415 22.2913 22.1243 22.05 22.5539 21.6203C22.9835 21.1907 23.2249 20.6079 23.2249 20.0003C23.2249 19.3927 22.9835 18.81 22.5539 18.3803C22.1243 17.9507 21.5415 17.7093 20.9339 17.7093ZM20.9339 16.1813C21.4407 16.1731 21.9441 16.2659 22.4146 16.4541C22.8852 16.6424 23.3136 16.9224 23.6749 17.2779C24.0362 17.6334 24.3231 18.0572 24.519 18.5247C24.7149 18.9922 24.8157 19.494 24.8157 20.0008C24.8157 20.5077 24.7149 21.0095 24.519 21.4769C24.3231 21.9444 24.0362 22.3683 23.6749 22.7237C23.3136 23.0792 22.8852 23.3593 22.4146 23.5475C21.9441 23.7358 21.4407 23.8285 20.9339 23.8203C19.9208 23.8203 18.9492 23.4179 18.2328 22.7015C17.5164 21.9851 17.1139 21.0135 17.1139 20.0003C17.1139 18.9872 17.5164 18.0156 18.2328 17.2992C18.9492 16.5828 19.9208 16.1813 20.9339 16.1813ZM25.8989 15.9903C25.9031 16.1183 25.8814 16.2457 25.8353 16.3652C25.7892 16.4846 25.7196 16.5935 25.6305 16.6855C25.5415 16.7775 25.4349 16.8506 25.317 16.9005C25.1991 16.9505 25.0724 16.9762 24.9444 16.9762C24.8164 16.9762 24.6897 16.9505 24.5718 16.9005C24.454 16.8506 24.3473 16.7775 24.2583 16.6855C24.1693 16.5935 24.0996 16.4846 24.0535 16.3652C24.0074 16.2457 23.9858 16.1183 23.9899 15.9903C23.9899 15.737 24.0905 15.4941 24.2696 15.315C24.4487 15.1359 24.6916 15.0353 24.9449 15.0353C25.1982 15.0353 25.4411 15.1359 25.6202 15.315C25.7993 15.4941 25.8989 15.737 25.8989 15.9903ZM20.9339 13.8903C19.0439 13.8903 18.7359 13.8943 17.8569 13.9333C17.2569 13.9623 16.8559 14.0423 16.4829 14.1873C16.1519 14.3153 15.9129 14.4693 15.6579 14.7243C15.4179 14.9553 15.2349 15.2373 15.1199 15.5493C14.9749 15.9233 14.8949 16.3243 14.8669 16.9233C14.8269 17.7663 14.8229 18.0613 14.8229 20.0003C14.8229 21.8903 14.8279 22.1993 14.8669 23.0783C14.8959 23.6763 14.9759 24.0783 15.1199 24.4513C15.2499 24.7833 15.4029 25.0223 15.6569 25.2763C15.9139 25.5323 16.1529 25.6863 16.4819 25.8133C16.8589 25.9593 17.2609 26.0403 17.8569 26.0673C18.6999 26.1073 18.9949 26.1113 20.9339 26.1113C22.8239 26.1113 23.1329 26.1063 24.0119 26.0673C24.6089 26.0393 25.0119 25.9593 25.3849 25.8143C25.7149 25.6853 25.9559 25.5323 26.2099 25.2783C26.4669 25.0203 26.6199 24.7813 26.7469 24.4533C26.8929 24.0763 26.9739 23.6733 27.0009 23.0783C27.0409 22.2353 27.0449 21.9403 27.0449 20.0003C27.0449 18.1103 27.0399 17.8023 27.0009 16.9233C26.9729 16.3253 26.8929 15.9223 26.7469 15.5493C26.6318 15.2377 26.4483 14.9557 26.2099 14.7243C25.979 14.485 25.697 14.3011 25.3849 14.1863C25.0109 14.0413 24.6089 13.9613 24.0119 13.9333C23.1689 13.8933 22.8739 13.8903 20.9339 13.8903ZM20.9339 12.3613C23.0099 12.3613 23.2689 12.3693 24.0829 12.4073C24.8969 12.4453 25.4499 12.5733 25.9379 12.7623C26.4419 12.9563 26.8669 13.2193 27.2909 13.6433C27.6799 14.0253 27.9809 14.4873 28.1719 14.9973C28.3609 15.4833 28.4889 16.0373 28.5269 16.8513C28.5629 17.6663 28.5729 17.9253 28.5729 20.0013C28.5729 22.0763 28.5649 22.3353 28.5269 23.1493C28.4889 23.9633 28.3609 24.5163 28.1719 25.0043C27.9809 25.5143 27.6799 25.9763 27.2919 26.3573C26.9098 26.7457 26.4478 27.0463 25.9379 27.2383C25.4509 27.4273 24.8959 27.5553 24.0829 27.5933C23.2689 27.6293 23.0099 27.6393 20.9339 27.6393C18.8589 27.6393 18.5999 27.6313 17.7849 27.5933C16.9719 27.5553 16.4179 27.4273 15.9309 27.2383C15.4208 27.0472 14.9587 26.7469 14.5769 26.3583C14.1886 25.9763 13.8883 25.5143 13.6969 25.0043C13.5069 24.5173 13.3789 23.9623 13.3409 23.1493C13.3049 22.3353 13.2949 22.0763 13.2949 20.0003C13.2949 17.9253 13.3029 17.6663 13.3409 16.8513C13.3789 16.0373 13.5069 15.4843 13.6959 14.9973C13.8879 14.4873 14.1879 14.0253 14.5769 13.6433C14.9588 13.2549 15.4209 12.9546 15.9309 12.7633C16.4179 12.5733 16.9709 12.4453 17.7849 12.4073C18.5999 12.3713 18.8589 12.3613 20.9349 12.3613H20.9339Z" fill="white"/>
</g>
</g>
</g>
</g>
<defs>
<filter id="filter0_i_1_4171" x="0.934082" y="0" width="40" height="40" filterUnits="userSpaceOnUse" color-interpolation-filters="sRGB">
<feFlood flood-opacity="0" result="BackgroundImageFix"/>
<feBlend mode="normal" in="SourceGraphic" in2="BackgroundImageFix" result="shape"/>
<feColorMatrix in="SourceAlpha" type="matrix" values="0 0 0 0 0 0 0 0 0 0 0 0 0 0 0 0 0 0 127 0" result="hardAlpha"/>
<feMorphology radius="0.82" operator="erode" in="SourceAlpha" result="effect1_innerShadow_1_4171"/>
<feOffset/>
<feGaussianBlur stdDeviation="4"/>
<feComposite in2="hardAlpha" operator="arithmetic" k2="-1" k3="1"/>
<feColorMatrix type="matrix" values="0 0 0 0 1 0 0 0 0 1 0 0 0 0 1 0 0 0 0.12 0"/>
<feBlend mode="normal" in2="shape" result="effect1_innerShadow_1_4171"/>
</filter>
<radialGradient id="paint0_radial_1_4171" cx="0" cy="0" r="1" gradientUnits="userSpaceOnUse" gradientTransform="translate(20.9341 40) scale(40)">
<stop stop-color="white" stop-opacity="0.04"/>
<stop offset="1" stop-color="white" stop-opacity="0"/>
</radialGradient>
<clipPath id="clip0_1_4171">
<rect x="0.934082" width="40" height="40" rx="8" fill="white"/>
</clipPath>
<clipPath id="clip1_1_4171">
<rect width="24" height="24" fill="white" transform="translate(8.93408 8)"/>
</clipPath>
<clipPath id="clip2_1_4171">
<rect width="24" height="24" fill="white" transform="translate(8.93408 8)"/>
</clipPath>
</defs>
</svg>
