<svg width="41" height="40" viewBox="0 0 41 40" fill="none" xmlns="http://www.w3.org/2000/svg">
<g filter="url(#filter0_i_1_4201)">
<g clip-path="url(#clip0_1_4201)">
<rect x="0.934082" width="40" height="40" rx="8" fill="#05041F" fill-opacity="0.08"/>
<rect x="1.43408" y="0.5" width="39" height="39" rx="7.5" stroke="white" stroke-opacity="0.08"/>
<rect x="0.934082" width="40" height="40" fill="url(#paint0_radial_1_4201)"/>
<g clip-path="url(#clip1_1_4201)">
<path d="M17.5594 25.8711H15.0984V17.9258H17.5594V25.8711ZM17.8049 15.3944C17.8049 14.5988 17.1595 13.9531 16.3643 13.9531C15.5662 13.9531 14.9224 14.5988 14.9224 15.3944C14.9224 16.1902 15.5662 16.8359 16.3643 16.8359C17.1595 16.8359 17.8049 16.1902 17.8049 15.3944ZM26.77 21.4999C26.77 19.3671 26.3194 17.7852 23.8279 17.7852C22.6306 17.7852 21.827 18.3839 21.4989 19.0066H21.4966V17.9258H19.106V25.8711H21.4966V21.9262C21.4966 20.8931 21.7596 19.8922 23.0402 19.8922C24.3033 19.8922 24.3442 21.0736 24.3442 21.9918V25.8711H26.77V21.4999ZM29.9341 26.8906V13.1094C29.9341 11.9462 28.9879 11 27.8247 11H14.0435C12.8803 11 11.9341 11.9462 11.9341 13.1094V26.8906C11.9341 28.0538 12.8803 29 14.0435 29H27.8247C28.9879 29 29.9341 28.0538 29.9341 26.8906ZM27.8247 12.4062C28.2124 12.4062 28.5278 12.7217 28.5278 13.1094V26.8906C28.5278 27.2783 28.2124 27.5938 27.8247 27.5938H14.0435C13.6558 27.5938 13.3403 27.2783 13.3403 26.8906V13.1094C13.3403 12.7217 13.6558 12.4062 14.0435 12.4062H27.8247Z" fill="white"/>
</g>
</g>
</g>
<defs>
<filter id="filter0_i_1_4201" x="0.934082" y="0" width="40" height="40" filterUnits="userSpaceOnUse" color-interpolation-filters="sRGB">
<feFlood flood-opacity="0" result="BackgroundImageFix"/>
<feBlend mode="normal" in="SourceGraphic" in2="BackgroundImageFix" result="shape"/>
<feColorMatrix in="SourceAlpha" type="matrix" values="0 0 0 0 0 0 0 0 0 0 0 0 0 0 0 0 0 0 127 0" result="hardAlpha"/>
<feMorphology radius="0.82" operator="erode" in="SourceAlpha" result="effect1_innerShadow_1_4201"/>
<feOffset/>
<feGaussianBlur stdDeviation="4"/>
<feComposite in2="hardAlpha" operator="arithmetic" k2="-1" k3="1"/>
<feColorMatrix type="matrix" values="0 0 0 0 1 0 0 0 0 1 0 0 0 0 1 0 0 0 0.12 0"/>
<feBlend mode="normal" in2="shape" result="effect1_innerShadow_1_4201"/>
</filter>
<radialGradient id="paint0_radial_1_4201" cx="0" cy="0" r="1" gradientUnits="userSpaceOnUse" gradientTransform="translate(20.9341 40) scale(40)">
<stop stop-color="white" stop-opacity="0.04"/>
<stop offset="1" stop-color="white" stop-opacity="0"/>
</radialGradient>
<clipPath id="clip0_1_4201">
<rect x="0.934082" width="40" height="40" rx="8" fill="white"/>
</clipPath>
<clipPath id="clip1_1_4201">
<rect width="18" height="18" fill="white" transform="translate(11.9341 11)"/>
</clipPath>
</defs>
</svg>
