<svg width="41" height="40" viewBox="0 0 41 40" fill="none" xmlns="http://www.w3.org/2000/svg">
<g filter="url(#filter0_i_1_4179)">
<g clip-path="url(#clip0_1_4179)">
<rect x="0.934082" width="40" height="40" rx="8" fill="#05041F" fill-opacity="0.08"/>
<rect x="1.43408" y="0.5" width="39" height="39" rx="7.5" stroke="white" stroke-opacity="0.08"/>
<rect x="0.934082" width="40" height="40" fill="url(#paint0_radial_1_4179)"/>
<g clip-path="url(#clip1_1_4179)">
<g clip-path="url(#clip2_1_4179)">
<path d="M23.454 15.0733C22.8736 15.0734 22.3164 15.3014 21.9024 15.7082C21.4883 16.1149 21.2505 16.6679 21.24 17.2483L21.218 18.4513C21.2169 18.5159 21.2021 18.5797 21.1746 18.6382C21.147 18.6967 21.1074 18.7488 21.0582 18.7908C21.0091 18.8329 20.9515 18.8641 20.8894 18.8822C20.8273 18.9004 20.7621 18.9052 20.698 18.8963L19.506 18.7343C17.937 18.5203 16.434 17.7973 14.992 16.5963C14.535 19.1243 15.427 20.8763 17.576 22.2273L18.91 23.0663C18.9732 23.1063 19.0256 23.1612 19.0628 23.2262C19.0999 23.2911 19.1207 23.3641 19.1233 23.4389C19.1258 23.5137 19.1101 23.5879 19.0775 23.6553C19.0448 23.7226 18.9963 23.7809 18.936 23.8253L17.72 24.7133C18.444 24.7583 19.13 24.7263 19.7 24.6133C23.304 23.8933 25.7 21.1823 25.7 16.7083C25.7 16.3433 24.927 15.0733 23.454 15.0733ZM19.712 17.2193C19.7253 16.4829 19.9556 15.7669 20.3739 15.1608C20.7922 14.5547 21.3801 14.0854 22.0638 13.8118C22.7476 13.5382 23.4968 13.4724 24.2178 13.6226C24.9388 13.7728 25.5994 14.1324 26.117 14.6563C26.66 14.6533 27.122 14.7903 28.156 14.1643C27.9 15.4163 27.774 15.9603 27.228 16.7083C27.228 22.5463 23.64 25.3843 20 26.1113C17.503 26.6093 13.873 25.7913 12.833 24.7053C13.363 24.6633 15.517 24.4323 16.763 23.5213C15.709 22.8263 11.516 20.3593 14.271 13.7253C15.565 15.2353 16.876 16.2643 18.205 16.8093C19.09 17.1723 19.307 17.1643 19.712 17.2203V17.2193Z" fill="white"/>
</g>
</g>
</g>
</g>
<defs>
<filter id="filter0_i_1_4179" x="0.934082" y="0" width="40" height="40" filterUnits="userSpaceOnUse" color-interpolation-filters="sRGB">
<feFlood flood-opacity="0" result="BackgroundImageFix"/>
<feBlend mode="normal" in="SourceGraphic" in2="BackgroundImageFix" result="shape"/>
<feColorMatrix in="SourceAlpha" type="matrix" values="0 0 0 0 0 0 0 0 0 0 0 0 0 0 0 0 0 0 127 0" result="hardAlpha"/>
<feMorphology radius="0.82" operator="erode" in="SourceAlpha" result="effect1_innerShadow_1_4179"/>
<feOffset/>
<feGaussianBlur stdDeviation="4"/>
<feComposite in2="hardAlpha" operator="arithmetic" k2="-1" k3="1"/>
<feColorMatrix type="matrix" values="0 0 0 0 1 0 0 0 0 1 0 0 0 0 1 0 0 0 0.12 0"/>
<feBlend mode="normal" in2="shape" result="effect1_innerShadow_1_4179"/>
</filter>
<radialGradient id="paint0_radial_1_4179" cx="0" cy="0" r="1" gradientUnits="userSpaceOnUse" gradientTransform="translate(20.9341 40) scale(40)">
<stop stop-color="white" stop-opacity="0.04"/>
<stop offset="1" stop-color="white" stop-opacity="0"/>
</radialGradient>
<clipPath id="clip0_1_4179">
<rect x="0.934082" width="40" height="40" rx="8" fill="white"/>
</clipPath>
<clipPath id="clip1_1_4179">
<rect width="24" height="24" fill="white" transform="translate(8.93408 8)"/>
</clipPath>
<clipPath id="clip2_1_4179">
<rect width="24" height="24" fill="white" transform="translate(8.93408 8)"/>
</clipPath>
</defs>
</svg>
