<svg width="41" height="40" viewBox="0 0 41 40" fill="none" xmlns="http://www.w3.org/2000/svg">
<g filter="url(#filter0_i_1_4193)">
<g clip-path="url(#clip0_1_4193)">
<rect x="0.934082" width="40" height="40" rx="8" fill="#05041F" fill-opacity="0.08"/>
<rect x="1.43408" y="0.5" width="39" height="39" rx="7.5" stroke="white" stroke-opacity="0.08"/>
<rect x="0.934082" width="40" height="40" fill="url(#paint0_radial_1_4193)"/>
<g clip-path="url(#clip1_1_4193)">
<g clip-path="url(#clip2_1_4193)">
<path d="M17.3081 24.9596L17.8611 25.2836C19.1441 26.0299 20.6549 26.2837 22.1114 25.9976C23.5678 25.7116 24.8703 24.9052 25.7758 23.7291C26.6812 22.553 27.1277 21.0876 27.0318 19.6064C26.9359 18.1252 26.3042 16.7296 25.2547 15.6801C24.2052 14.6305 22.8095 13.9988 21.3284 13.903C19.8472 13.8071 18.3818 14.2535 17.2057 15.159C16.0296 16.0644 15.2232 17.367 14.9371 18.8234C14.6511 20.2799 14.9049 21.7906 15.6511 23.0736L15.9741 23.6266L15.4741 25.4606L17.3081 24.9606V24.9596ZM13.2981 27.6396L14.3311 23.8436C13.3978 22.2399 13.0801 20.3513 13.4374 18.5304C13.7947 16.7096 14.8025 15.0811 16.2727 13.9489C17.7428 12.8168 19.5748 12.2585 21.4265 12.3782C23.2782 12.498 25.023 13.2876 26.335 14.5997C27.6471 15.9118 28.4368 17.6566 28.5565 19.5083C28.6763 21.36 28.118 23.1919 26.9858 24.6621C25.8537 26.1323 24.2252 27.1401 22.4043 27.4974C20.5835 27.8547 18.6949 27.537 17.0911 26.6036L13.2981 27.6396ZM18.1781 16.4156C18.2803 16.4082 18.3828 16.4071 18.4851 16.4126L18.6091 16.4246C18.7301 16.4386 18.8641 16.5126 18.9091 16.6146C19.1371 17.1316 19.3591 17.6516 19.5721 18.1736C19.6201 18.2896 19.5921 18.4386 19.5021 18.5836C19.4391 18.6816 19.3721 18.7766 19.3001 18.8676C19.2141 18.9776 19.0281 19.1816 19.0281 19.1816C19.0281 19.1816 18.9531 19.2716 18.9821 19.3836C18.9921 19.4266 19.0281 19.4886 19.0601 19.5406L19.1051 19.6136C19.3001 19.9396 19.5631 20.2706 19.8841 20.5816C19.9751 20.6706 20.0641 20.7616 20.1611 20.8466C20.519 21.1621 20.9238 21.4199 21.3611 21.6106L21.3641 21.6116C21.4291 21.6396 21.4621 21.6556 21.5571 21.6956C21.6041 21.7156 21.6531 21.7326 21.7031 21.7456C21.7544 21.7586 21.8083 21.7561 21.8581 21.7385C21.9079 21.7209 21.9514 21.6889 21.9831 21.6466C22.5361 20.9766 22.5871 20.9336 22.5911 20.9336V20.9346C22.6296 20.8989 22.6753 20.8717 22.7252 20.855C22.775 20.8383 22.8278 20.8324 22.8801 20.8376C22.9265 20.8397 22.9722 20.8498 23.0151 20.8676C23.4211 21.0536 24.0851 21.3436 24.0851 21.3436L24.5291 21.5436C24.6041 21.5786 24.6721 21.6636 24.6741 21.7456C24.6771 21.7956 24.6821 21.8786 24.6641 22.0306C24.6422 22.223 24.5941 22.4114 24.5211 22.5906C24.4803 22.6753 24.4263 22.753 24.3611 22.8206C24.2837 22.9016 24.199 22.9752 24.1081 23.0406C24.0769 23.0643 24.0452 23.0873 24.0131 23.1096C23.9181 23.1696 23.8201 23.2256 23.7201 23.2776C23.5235 23.3821 23.3064 23.4422 23.0841 23.4536C22.9421 23.4606 22.8011 23.4716 22.6591 23.4636L22.2251 23.3976C21.1392 23.1119 20.1349 22.5767 19.2921 21.8346C19.1191 21.6826 18.9601 21.5196 18.7961 21.3566C18.1161 20.6806 17.6031 19.9506 17.2911 19.2616C17.1315 18.9235 17.0453 18.5555 17.0381 18.1816C17.0353 17.7183 17.187 17.2672 17.4691 16.8996C17.5251 16.8276 17.5781 16.7526 17.6691 16.6666C17.7349 16.598 17.8104 16.5394 17.8931 16.4926C17.9816 16.4481 18.0782 16.4219 18.1771 16.4156H18.1781Z" fill="white"/>
</g>
</g>
</g>
</g>
<defs>
<filter id="filter0_i_1_4193" x="0.934082" y="0" width="40" height="40" filterUnits="userSpaceOnUse" color-interpolation-filters="sRGB">
<feFlood flood-opacity="0" result="BackgroundImageFix"/>
<feBlend mode="normal" in="SourceGraphic" in2="BackgroundImageFix" result="shape"/>
<feColorMatrix in="SourceAlpha" type="matrix" values="0 0 0 0 0 0 0 0 0 0 0 0 0 0 0 0 0 0 127 0" result="hardAlpha"/>
<feMorphology radius="0.82" operator="erode" in="SourceAlpha" result="effect1_innerShadow_1_4193"/>
<feOffset/>
<feGaussianBlur stdDeviation="4"/>
<feComposite in2="hardAlpha" operator="arithmetic" k2="-1" k3="1"/>
<feColorMatrix type="matrix" values="0 0 0 0 1 0 0 0 0 1 0 0 0 0 1 0 0 0 0.12 0"/>
<feBlend mode="normal" in2="shape" result="effect1_innerShadow_1_4193"/>
</filter>
<radialGradient id="paint0_radial_1_4193" cx="0" cy="0" r="1" gradientUnits="userSpaceOnUse" gradientTransform="translate(20.9341 40) scale(40)">
<stop stop-color="white" stop-opacity="0.04"/>
<stop offset="1" stop-color="white" stop-opacity="0"/>
</radialGradient>
<clipPath id="clip0_1_4193">
<rect x="0.934082" width="40" height="40" rx="8" fill="white"/>
</clipPath>
<clipPath id="clip1_1_4193">
<rect width="24" height="24" fill="white" transform="translate(8.93408 8)"/>
</clipPath>
<clipPath id="clip2_1_4193">
<rect width="24" height="24" fill="white" transform="translate(8.93408 8)"/>
</clipPath>
</defs>
</svg>
