<svg width="95" height="87" viewBox="0 0 95 87" fill="none" xmlns="http://www.w3.org/2000/svg">
<path d="M86.4611 86.9998C76.5968 79.9696 63.0855 75.6196 48.1682 75.6196C33.2729 75.6196 19.7617 79.9696 9.89737 86.9998H86.4611Z" fill="white"/>
<path d="M90.7451 82.934C88.7898 83.1976 62.734 82.934 62.734 82.934L62.1189 80.2098L59.7461 69.4887C59.7461 69.4887 69.3468 69.972 68.7536 69.247C68.1605 68.544 67.1059 57.5153 61.7673 55.8456C56.4287 54.1759 48.1682 53.9343 48.1682 53.9343V32.9753L55.7916 27.8564C59.4825 32.1625 79.1672 43.1253 81.5619 48.376C83.9565 53.6047 93.3595 66.9402 94.2163 72.1689C95.0951 77.4196 92.7004 82.6923 90.7451 82.934Z" fill="url(#paint0_linear_1_4258)"/>
<path style="mix-blend-mode:multiply" d="M90.7449 82.9345C88.7896 83.1981 62.7338 82.9345 62.7338 82.9345L62.1187 80.2103C66.952 80.0126 74.0261 79.6391 80.5291 79.0898C91.8214 78.1232 94.2161 72.1694 94.2161 72.1694C95.0949 77.4201 92.7002 82.6928 90.7449 82.9345Z" fill="url(#paint1_linear_1_4258)"/>
<path style="mix-blend-mode:multiply" d="M86.461 69.8639C86.461 69.8639 80.5732 57.0557 74.5975 53.7822L76.4868 68.5018L86.461 69.8639Z" fill="url(#paint2_linear_1_4258)"/>
<path d="M74.5969 71.1145C74.5969 71.1145 82.8354 68.5661 90.2831 72.2569C90.2831 72.2569 88.3937 68.5221 80.4628 66.8964C80.4628 66.8964 75.4098 50.2655 69.4341 49.4965C63.4584 48.7056 63.1508 72.2569 63.1508 72.2569L74.5969 71.1145Z" fill="#00042D"/>
<path d="M38.6117 27.8564C34.9208 32.1625 15.2362 43.1253 12.8415 48.376C10.4468 53.6047 1.04385 66.9402 0.187039 72.1689C-0.691741 77.4196 1.70293 82.6923 3.65822 82.934C5.6135 83.1976 31.6693 82.934 31.6693 82.934L34.6572 69.4887C34.6572 69.4887 25.0565 69.972 25.6497 69.247C26.2429 68.544 27.2974 57.5153 32.636 55.8456C37.9746 54.1759 46.2351 53.9343 46.2351 53.9343V32.9753L38.6117 27.8564Z" fill="url(#paint3_linear_1_4258)"/>
<path style="mix-blend-mode:multiply" d="M3.65822 82.9345C5.6135 83.1981 31.6693 82.9345 31.6693 82.9345L32.2845 80.2103C27.4512 80.0126 20.377 79.6391 13.874 79.0898C2.58171 78.1232 0.187039 72.1694 0.187039 72.1694C-0.691741 77.4201 1.70293 82.6928 3.65822 82.9345Z" fill="url(#paint4_linear_1_4258)"/>
<path style="mix-blend-mode:multiply" d="M7.94147 69.8639C7.94147 69.8639 13.8293 57.0557 19.805 53.7822L17.9156 68.5018L7.94147 69.8639Z" fill="url(#paint5_linear_1_4258)"/>
<path d="M20.5082 71.1145C20.5082 71.1145 12.2696 68.5661 4.82193 72.2569C4.82193 72.2569 6.71131 68.5221 14.6203 66.8964C14.6203 66.8964 19.6733 50.2655 25.671 49.4965C31.6467 48.7056 31.9323 72.2569 31.9323 72.2569L20.5082 71.1145Z" fill="#00042D"/>
<path d="M66.9959 27.0671C66.7103 33.2844 65.6338 46.4002 61.2619 49.9593C57.9885 52.6176 52.0567 50.9479 47.6188 50.9479C42.434 50.9479 37.1833 53.4524 33.7122 49.9593C30.197 46.4442 28.4834 32.5155 28.2417 27.0671C31.647 19.7732 39.0507 14.6982 47.6188 14.6982C56.2089 14.6982 63.6126 19.7732 66.9959 27.0671Z" fill="url(#paint6_linear_1_4258)"/>
<path style="mix-blend-mode:multiply" d="M29.0995 20.8925C29.0995 30.0318 31.4282 39.6105 33.2517 43.8506C35.0971 48.0907 41.2047 55.802 47.6417 56.9444C54.0788 58.0868 60.384 48.7498 62.4052 43.2135C65.7007 34.2939 66.0082 19.6622 66.0082 19.6622C66.0082 19.6622 55.5068 10.1054 45.6864 11.0062C35.888 11.885 29.0995 20.8925 29.0995 20.8925Z" fill="url(#paint7_linear_1_4258)"/>
<path d="M33.0752 18.6531C33.0752 25.7273 34.8987 33.131 36.3487 36.4045C37.7767 39.6999 41.8191 46.5544 47.619 46.5544C52.7379 46.5544 57.6152 40.2052 59.197 35.9431C61.7894 29.0228 62.031 17.6865 62.031 17.6865C62.031 17.6865 53.7925 10.3047 46.1031 10.9858C38.3918 11.6668 33.0752 18.6531 33.0752 18.6531Z" fill="#00042D"/>
<path d="M47.6194 0C40.4793 0 28.2203 14.7635 28.2203 26.0778C28.2203 26.4147 28.2276 26.7442 28.2423 27.0664C31.6476 19.7726 39.0513 14.6976 47.6194 14.6976C56.2095 14.6976 63.6132 19.7726 66.9965 27.0664C67.0111 26.7442 67.0185 26.4147 67.0185 26.0778C67.0185 14.7635 55.0011 0 47.6194 0Z" fill="url(#paint8_linear_1_4258)"/>
<path d="M70.9295 81.7479H24.3102C22.1133 81.7479 20.2678 80.0562 20.0921 77.8592L17.4558 47.5633C17.2361 45.0807 19.1913 42.9497 21.6739 42.9497H73.5659C76.0704 42.9497 78.0037 45.0807 77.806 47.5633L75.1696 77.8592C74.9719 80.0562 73.1484 81.7479 70.9295 81.7479Z" fill="white"/>
<path d="M70.9295 83.0662H24.3102C22.1133 83.0662 20.2678 81.3746 20.0921 79.1776L17.4558 48.8817C17.2361 46.3991 19.1913 44.2681 21.6739 44.2681H73.5659C76.0704 44.2681 78.0037 46.3991 77.806 48.8817L75.1696 79.1776C74.9719 81.3746 73.1484 83.0662 70.9295 83.0662Z" fill="url(#paint9_linear_1_4258)"/>
<g style="mix-blend-mode:multiply">
<path d="M24.2443 44.2681H21.6739C19.1913 44.2681 17.2361 46.3991 17.4558 48.8817L20.0921 79.1776C20.2678 81.3746 22.1133 83.0662 24.3102 83.0662H26.1337L24.2443 44.2681Z" fill="url(#paint10_linear_1_4258)"/>
<path d="M73.5652 44.2681H70.9947L69.1054 83.0662H70.9288C73.1477 83.0662 74.9712 81.3746 75.1689 79.1776L77.8053 48.8817C78.003 46.3991 76.0697 44.2681 73.5652 44.2681Z" fill="url(#paint11_linear_1_4258)"/>
</g>
<defs>
<linearGradient id="paint0_linear_1_4258" x1="7.54111" y1="84.7043" x2="66.9595" y2="-24.9326" gradientUnits="userSpaceOnUse">
<stop stop-color="#FF00C1"/>
<stop offset="1" stop-color="#F4AC24"/>
</linearGradient>
<linearGradient id="paint1_linear_1_4258" x1="69.8757" y1="86.5852" x2="79.9845" y2="64.365" gradientUnits="userSpaceOnUse">
<stop stop-color="#F4D63B" stop-opacity="0"/>
<stop offset="1" stop-color="#5C1CB2"/>
</linearGradient>
<linearGradient id="paint2_linear_1_4258" x1="94.7391" y1="50.4317" x2="90.8767" y2="73.0543" gradientUnits="userSpaceOnUse">
<stop stop-color="#F4D63B" stop-opacity="0"/>
<stop offset="1" stop-color="#5C1CB2"/>
</linearGradient>
<linearGradient id="paint3_linear_1_4258" x1="-23.024" y1="52.1989" x2="18.107" y2="-23.6948" gradientUnits="userSpaceOnUse">
<stop stop-color="#FF00C1"/>
<stop offset="1" stop-color="#F4AC24"/>
</linearGradient>
<linearGradient id="paint4_linear_1_4258" x1="24.5275" y1="86.5852" x2="14.4187" y2="64.365" gradientUnits="userSpaceOnUse">
<stop stop-color="#F4D63B" stop-opacity="0"/>
<stop offset="1" stop-color="#5C1CB2"/>
</linearGradient>
<linearGradient id="paint5_linear_1_4258" x1="-0.336642" y1="50.4317" x2="3.52579" y2="73.0543" gradientUnits="userSpaceOnUse">
<stop stop-color="#F4D63B" stop-opacity="0"/>
<stop offset="1" stop-color="#5C1CB2"/>
</linearGradient>
<linearGradient id="paint6_linear_1_4258" x1="-3.03316" y1="75.3936" x2="44.9417" y2="-13.1279" gradientUnits="userSpaceOnUse">
<stop stop-color="#FF00C1"/>
<stop offset="1" stop-color="#F4AC24"/>
</linearGradient>
<linearGradient id="paint7_linear_1_4258" x1="14.2" y1="55.264" x2="18.5474" y2="13.0333" gradientUnits="userSpaceOnUse">
<stop stop-color="#F4D63B" stop-opacity="0"/>
<stop offset="1" stop-color="#5C1CB2"/>
</linearGradient>
<linearGradient id="paint8_linear_1_4258" x1="-2.75339" y1="75.5087" x2="44.6072" y2="-11.8791" gradientUnits="userSpaceOnUse">
<stop stop-color="#FF00C1"/>
<stop offset="1" stop-color="#F4AC24"/>
</linearGradient>
<linearGradient id="paint9_linear_1_4258" x1="75.3272" y1="43.7404" x2="52.2381" y2="103.267" gradientUnits="userSpaceOnUse">
<stop stop-color="#A76DFC"/>
<stop offset="1" stop-color="#5C1CB2"/>
</linearGradient>
<linearGradient id="paint10_linear_1_4258" x1="109.753" y1="48.2993" x2="108.016" y2="85.0773" gradientUnits="userSpaceOnUse">
<stop stop-color="white" stop-opacity="0"/>
<stop offset="1" stop-color="#5C1CB2"/>
</linearGradient>
<linearGradient id="paint11_linear_1_4258" x1="161.315" y1="50.6403" x2="159.587" y2="87.2169" gradientUnits="userSpaceOnUse">
<stop stop-color="white" stop-opacity="0"/>
<stop offset="1" stop-color="#5C1CB2"/>
</linearGradient>
</defs>
</svg>
