<svg width="98" height="97" viewBox="0 0 98 97" fill="none" xmlns="http://www.w3.org/2000/svg">
<path d="M71.4459 4.28348L68.9682 0L66.4905 4.28348L64.0128 8.58796H66.5744V62.0895H71.3619V8.58796H73.9236L71.4459 4.28348Z" fill="url(#paint0_linear_1_4322)"/>
<path d="M81.6076 20.115L79.1299 15.8315L76.6522 20.115L74.1745 24.3985H76.7362V68.9551H81.5236V24.3985H84.0853L81.6076 20.115Z" fill="url(#paint1_linear_1_4322)"/>
<path d="M61.4091 13.0396V50.478L14.1019 76.5779L12.4431 75.0661V40.0633L61.4091 13.0396Z" fill="url(#paint2_linear_1_4322)"/>
<path d="M59.4353 16.3564V49.3225L59.3513 49.3645L47.1728 56.0837L14.3958 74.1835V41.2384L17.1674 39.7056L29.3459 32.9864L31.0047 32.0626L35.4982 29.5849L59.4353 16.3564Z" fill="url(#paint3_linear_1_4322)"/>
<path d="M90.6582 66.6876L45.8496 94.3412L42.595 94.2363L17.881 80.5249L18.133 80.2729L14.1014 76.5774L61.4087 50.4565L66.0492 53.0392L69.1568 54.761L74.4062 57.6587L77.4928 59.3805L82.7422 62.2991L85.8288 64.0209L90.6582 66.6876Z" fill="url(#paint4_linear_1_4322)"/>
<path d="M16.4965 77.5031L61.41 52.7051L86.775 66.7944L44.3391 92.9782L16.4965 77.5031Z" fill="url(#paint5_linear_1_4322)"/>
<path d="M53.0521 77.837L66.8265 69.522L74.9735 74.0364L61.3671 82.4354L53.0521 77.837Z" fill="url(#paint6_linear_1_4322)"/>
<path d="M42.5957 94.2367L40.58 94.1737L17.1888 81.1973L17.8817 80.5254L42.5957 94.2367Z" fill="url(#paint7_linear_1_4322)"/>
<path d="M90.6593 66.6885V67.9063L47.5095 94.3841L45.8507 94.3421L90.6593 66.6885Z" fill="url(#paint8_linear_1_4322)"/>
<path style="mix-blend-mode:screen" d="M59.3506 49.3653L47.1721 56.0845L17.1667 39.7065L29.3452 32.9873L59.3506 49.3653Z" fill="url(#paint9_linear_1_4322)"/>
<path style="mix-blend-mode:screen" d="M59.4362 42.6464V46.8878V47.6018L31.0056 32.0636L35.4991 29.5859L59.4362 42.6464Z" fill="url(#paint10_linear_1_4322)"/>
<path d="M46.3331 92.8721C26.7635 92.8721 10.9104 77.019 10.9104 57.4703C10.9104 37.9007 26.7635 22.0476 46.3331 22.0476C46.921 22.0476 47.488 22.0686 48.0759 22.0896L53.4513 19.129C51.1415 18.688 48.7688 18.478 46.3331 18.478C24.7897 18.478 7.34082 35.9269 7.34082 57.4703C7.34082 78.9927 24.7897 96.4416 46.3331 96.4416C61.3043 96.4416 74.3017 88.0006 80.8319 75.6121L73.5668 80.0636C67.0786 87.8957 57.2938 92.8721 46.3331 92.8721Z" fill="url(#paint11_linear_1_4322)"/>
<defs>
<linearGradient id="paint0_linear_1_4322" x1="263.53" y1="-21.2377" x2="263.53" y2="61.7067" gradientUnits="userSpaceOnUse">
<stop stop-color="#FFAD4B"/>
<stop offset="1" stop-color="#77007C"/>
</linearGradient>
<linearGradient id="paint1_linear_1_4322" x1="221.629" y1="11.3515" x2="221.629" y2="74.3469" gradientUnits="userSpaceOnUse">
<stop stop-color="#FFAD4B"/>
<stop offset="1" stop-color="#77007C"/>
</linearGradient>
<linearGradient id="paint2_linear_1_4322" x1="12.437" y1="13.0387" x2="61.4045" y2="13.0387" gradientUnits="userSpaceOnUse">
<stop stop-color="#461885"/>
<stop offset="1" stop-color="#AA51E0"/>
</linearGradient>
<linearGradient id="paint3_linear_1_4322" x1="95.6389" y1="52.7843" x2="44.7532" y2="103.158" gradientUnits="userSpaceOnUse">
<stop stop-color="#FFAD4B"/>
<stop offset="1" stop-color="#77007C"/>
</linearGradient>
<linearGradient id="paint4_linear_1_4322" x1="14.0991" y1="50.4582" x2="90.6538" y2="50.4582" gradientUnits="userSpaceOnUse">
<stop stop-color="#461885"/>
<stop offset="1" stop-color="#AA51E0"/>
</linearGradient>
<linearGradient id="paint5_linear_1_4322" x1="92.1537" y1="69.9474" x2="49.7062" y2="103.681" gradientUnits="userSpaceOnUse">
<stop stop-color="#AA51E0"/>
<stop offset="1" stop-color="#461885"/>
</linearGradient>
<linearGradient id="paint6_linear_1_4322" x1="48.9188" y1="55.1328" x2="77.8048" y2="77.1208" gradientUnits="userSpaceOnUse">
<stop stop-color="#AA51E0"/>
<stop offset="1" stop-color="#461885"/>
</linearGradient>
<linearGradient id="paint7_linear_1_4322" x1="26.1835" y1="95.148" x2="26.1835" y2="81.8392" gradientUnits="userSpaceOnUse">
<stop stop-color="#AA51E0"/>
<stop offset="1" stop-color="#461885"/>
</linearGradient>
<linearGradient id="paint8_linear_1_4322" x1="72.9272" y1="64.4147" x2="94.4938" y2="77.0606" gradientUnits="userSpaceOnUse">
<stop stop-color="#461885"/>
<stop offset="1" stop-color="#AA51E0"/>
</linearGradient>
<linearGradient id="paint9_linear_1_4322" x1="18.4595" y1="18.6059" x2="65.7448" y2="44.6129" gradientUnits="userSpaceOnUse">
<stop stop-color="#FFAD4B"/>
<stop offset="1" stop-color="#77007C" stop-opacity="0"/>
</linearGradient>
<linearGradient id="paint10_linear_1_4322" x1="32.0903" y1="19.2134" x2="65.1167" y2="37.3778" gradientUnits="userSpaceOnUse">
<stop stop-color="#FFAD4B"/>
<stop offset="1" stop-color="#77007C" stop-opacity="0"/>
</linearGradient>
<linearGradient id="paint11_linear_1_4322" x1="7.34523" y1="18.47" x2="80.8319" y2="18.47" gradientUnits="userSpaceOnUse">
<stop stop-color="#FFAD4B"/>
<stop offset="1" stop-color="#77007C"/>
</linearGradient>
</defs>
</svg>
