<svg width="123" height="87" viewBox="0 0 123 87" fill="none" xmlns="http://www.w3.org/2000/svg">
<path fill-rule="evenodd" clip-rule="evenodd" d="M40.3838 4.99199C38.6749 7.64539 37.8878 10.9734 37.1233 14.1889C36.5611 16.4826 34.9646 24.3753 34.7847 30.2442C34.4399 30.3192 34.0876 30.3942 33.7279 30.4691C32.2662 30.7839 30.7372 31.2337 29.298 31.7508C29.0132 31.8558 28.7359 31.9607 28.466 32.0657C28.2112 32.1706 27.9563 32.2755 27.7015 32.3805C27.2518 32.5828 26.8245 32.7852 26.4422 32.9876L26.4198 33.0101H26.3973C25.8576 33.3249 24.2386 34.4717 20.9106 38.7216L20.8881 38.7441L20.8656 38.7666C17.7175 42.7917 13.9623 48.3233 9.75731 55.2492C0.650307 70.2026 -0.159203 75.7343 0.0206909 78.6126V78.635C0.0356827 78.785 0.0506744 78.9199 0.0656662 79.0398C0.470421 82.5027 3.10133 84.9537 7.17137 85.6508C9.86974 86.5278 13.2202 87 16.908 87C18.3471 87 19.8537 86.91 21.3828 86.7751C22.1698 86.7077 23.0918 86.6177 24.1037 86.5278C33.548 85.6958 51.2898 84.2791 51.4696 84.2567L52.2117 84.1892L52.8188 83.7395C62.5105 76.3414 63.0052 74.9473 63.2525 74.2727L64.3993 71.1246L61.0489 70.8547C60.9589 70.8547 51.5596 70.1127 35.999 68.0439C35.4818 67.9765 34.7173 67.954 33.7503 67.954C31.9964 67.954 28.8933 68.0664 25.4528 68.4712C25.7377 68.3662 26.03 68.2763 26.3298 68.2013C28.6684 67.5268 30.6922 65.9977 32.0414 63.9289C34.6498 59.8589 36.1114 56.7108 36.5162 54.3047C36.6061 53.7426 36.8759 52.0786 35.8416 46.2996C35.9165 46.2996 35.984 46.2996 36.044 46.2996C36.831 46.3895 37.7979 46.4795 38.8548 46.4795C45.6007 46.4795 50.3903 42.297 53.4709 33.7072C55.8995 26.8713 58.6203 22.5539 61.5436 20.8674C62.5555 20.2828 63.8822 19.9904 65.4787 19.9904C65.8385 19.9904 66.2058 20.0054 66.5805 20.0354C67.525 20.1029 68.3794 20.2603 69.0765 20.4177C68.1546 21.4521 67.5025 22.7563 67.2776 24.1954C66.9403 26.6464 66.3781 28.8726 65.861 30.0644C65.2988 31.3011 64.9615 32.4254 64.6692 33.4148C64.152 35.1463 63.8372 36.0907 62.8928 36.9452C60.082 39.5311 57.9682 40.8578 56.5741 40.8578C56.2368 40.8578 55.922 40.7904 55.4497 40.633L51.0649 39.1489L52.1442 43.6462C52.2342 43.961 53.0212 46.8392 56.7765 47.8511H56.7989C57.8108 48.121 58.8452 48.2559 59.8571 48.2559C59.947 48.2559 60.4417 48.2784 62.9827 48.4358C64.8491 48.5707 66.2882 50.0548 66.3782 51.8987C66.9178 64.4911 66.3557 67.999 66.1308 68.8534C65.6361 69.9778 61.8584 77.6681 60.3518 80.299C59.9245 81.0636 59.4523 81.8281 58.9351 82.6376L56.4616 86.5503H71.9773L72.1347 84.1442C72.1347 84.1217 72.2696 82.098 72.4045 79.1073C76.1597 82.1654 79.038 84.459 79.083 84.504L80.2298 85.4259L81.6239 84.8863C81.7589 84.8188 85.1543 83.4696 88.5723 81.9406C90.6185 80.9961 92.26 80.1866 93.4068 79.512C94.7335 78.77 97.1621 77.3758 96.5549 75.0147C96.1502 73.3732 90.2363 64.0638 88.4149 61.2306C86.0088 57.4753 80.0499 48.3458 76.8343 44.6581C75.4627 43.1065 74.0685 41.7573 72.5844 40.5655C74.2034 38.3619 75.3952 36.1357 76.1597 34.4492C77.9587 30.5815 79.2629 23.8581 78.3184 20.665V20.6201L78.296 20.5976C78.296 20.5976 78.2285 20.3502 78.0711 19.923C77.7338 19.001 77.3515 18.0791 76.9693 17.2021C75.9349 14.841 74.5182 11.648 72.2696 9.4443C66.2882 3.6428 57.9682 0.112432 50.008 0C49.9331 0 49.8581 0 49.7832 0C45.6457 0 42.4976 1.664 40.3838 4.99199ZM49.9855 2.54097C57.6084 2.6534 65.2988 6.22874 70.4932 11.2657C72.382 13.1096 73.6862 16.0553 74.6307 18.214C75.1029 19.3158 75.4627 20.2378 75.665 20.7999C75.8 21.1597 75.8674 21.3846 75.8674 21.3846C76.542 23.6782 75.5976 29.6146 73.8436 33.3923C73.1466 34.8989 71.4826 38.2494 68.8966 41.0602C70.9879 42.3869 72.9442 44.0734 74.923 46.3445C80.0049 52.146 93.7216 74.1602 94.0814 75.6219C94.4412 77.061 80.6795 82.5027 80.6795 82.5027C80.6795 82.5027 75.6426 78.4776 70.1109 73.9354C69.8635 79.512 69.5937 83.9868 69.5937 83.9868H61.0938C61.6035 83.1923 62.0907 82.3828 62.5555 81.5583C64.197 78.725 68.4244 70.0902 68.5593 69.7079C69.4138 66.8746 69.1889 57.7676 68.9191 51.7863C68.7842 48.6382 66.3107 46.1197 63.1626 45.8948C61.611 45.8049 60.2169 45.7149 59.8571 45.7149C59.0925 45.7149 58.283 45.6025 57.4285 45.4001C55.0225 44.7255 54.6177 43.039 54.6177 43.039C55.2249 43.2414 55.8545 43.3988 56.5741 43.3988C58.373 43.3988 60.7116 42.4319 64.6242 38.8341C66.9178 36.6979 66.7604 34.2468 68.1771 31.1212C68.8292 29.6821 69.4363 27.2086 69.8186 24.5777C70.1559 22.2841 72.0897 20.6425 74.3159 20.6425C74.6457 20.6425 74.983 20.68 75.3277 20.755C74.6756 20.1029 73.4614 19.1135 71.7074 18.5063C71.2577 18.3489 69.2339 17.6968 66.7829 17.4944C66.3632 17.4645 65.9284 17.4495 65.4787 17.4495C63.7248 17.4495 61.8584 17.7418 60.2618 18.6637C55.3598 21.497 52.3916 29.1649 51.0649 32.8527C47.6245 42.4769 42.6999 43.9385 38.8548 43.9385C37.3707 43.9385 36.0664 43.7136 35.0545 43.6687C35.0246 43.6687 34.9946 43.6687 34.9646 43.6687C33.9977 43.6687 33.2107 44.4107 33.1432 45.3326C33.1282 45.4826 33.1357 45.64 33.1657 45.8049C33.6379 48.3233 34.2675 52.236 33.9977 53.9C33.6154 56.2386 31.884 59.4541 29.8827 62.5573C28.8933 64.0863 27.3867 65.2331 25.6327 65.7503C23.3616 66.3799 21.2254 67.2344 19.5389 68.3363C18.5945 68.9209 14.367 71.5968 13.0403 74.2502C17.695 71.4169 28.9158 70.495 33.7503 70.495C34.6048 70.495 35.2569 70.5174 35.6617 70.5849C51.4696 72.6761 60.869 73.4182 60.869 73.4182C60.3743 74.7674 51.2673 81.7157 51.2673 81.7157C51.2673 81.7157 33.458 83.1548 23.8788 83.9868C22.8669 84.0768 21.945 84.1667 21.1355 84.2342C19.6663 84.3691 18.2572 84.4366 16.908 84.4366C13.3102 84.4366 10.1846 83.9868 7.77851 83.1773C5.1476 82.7726 2.89896 81.4458 2.60663 78.7475C2.59164 78.6425 2.57664 78.5376 2.56165 78.4327C2.33679 74.9698 4.67538 68.5162 11.9385 56.5759C16.8181 48.5482 20.3934 43.5112 22.8669 40.3407C22.8819 40.3257 22.8969 40.3107 22.9119 40.2957C26.2848 36.0008 27.6565 35.2362 27.6565 35.2362C27.9488 35.0788 28.3086 34.8989 28.7359 34.719C28.9457 34.6291 29.1706 34.5392 29.4105 34.4492C29.6503 34.3443 29.9052 34.2468 30.175 34.1569C31.3443 33.7296 32.7834 33.2799 34.29 32.9426C34.6198 32.8677 34.9571 32.8002 35.3019 32.7402H35.3244C36.4712 32.5154 37.2807 31.5485 37.3257 30.4017C37.4831 25.0049 38.9897 17.337 39.5968 14.7736C41.0809 8.63479 42.565 2.54097 49.7832 2.54097C49.8431 2.54097 49.9106 2.54097 49.9855 2.54097Z" fill="#00042D"/>
<path d="M2.56229 78.4318C2.57729 78.5367 2.59228 78.6417 2.60727 78.7466C2.89959 81.445 5.14823 82.7717 7.77914 83.1764C11.0846 84.2783 15.7843 84.728 21.1361 84.2333C21.9456 84.1658 22.8675 84.0759 23.8794 83.986C33.4586 83.154 51.2679 81.7148 51.2679 81.7148C51.2679 81.7148 60.3749 76.0033 60.8696 74.6541C60.8696 74.6541 59.5429 74.3618 57.0469 73.912C55.3604 73.5972 53.1343 73.215 50.3909 72.7652C46.4558 72.1131 41.4863 71.3486 35.6623 70.584C33.0764 70.2243 18.5052 70.9213 13.041 74.2493C14.3677 71.5959 18.5951 68.92 19.5395 68.3129C21.226 67.2336 23.3623 66.3791 25.6334 65.7495C27.3873 65.2323 28.8939 64.0855 29.8833 62.5564C31.8846 59.4533 33.616 56.2377 33.9983 53.8991C34.2682 52.2351 33.6385 48.3225 33.1663 45.804C33.1363 45.6391 33.1288 45.4817 33.1438 45.3318C33.2338 44.3873 34.0433 43.6228 35.0552 43.6678C38.698 43.8477 46.2984 46.1863 51.0655 32.8518C52.3922 29.164 55.3604 21.4962 60.2625 18.6629C62.2638 17.5161 64.6698 17.3362 66.7835 17.4936C69.2346 17.696 71.2583 18.3481 71.7081 18.5055C73.462 19.1126 74.6763 20.102 75.3284 20.7541C74.9836 20.6792 74.6463 20.6417 74.3165 20.6417C72.0903 20.6417 70.1565 22.2832 69.8192 24.5768C69.4369 27.2077 68.8298 29.6812 68.1777 31.1203C66.761 34.246 66.9184 36.697 64.6248 38.8332C59.1606 43.8702 56.7321 43.7577 54.6184 43.0382C54.6184 43.0382 55.0231 44.7246 57.4292 45.3992C58.2837 45.6016 59.0932 45.714 59.8577 45.714C60.2175 45.714 61.6117 45.804 63.1632 45.8939C66.3113 46.1188 68.7848 48.6373 68.9197 51.7854C69.1896 57.7668 69.4144 66.8738 68.56 69.7071C68.425 70.0893 64.1976 78.7241 62.5561 81.5574C62.0914 82.3819 61.6042 83.1914 61.0945 83.986H69.5943C69.5943 83.986 69.8642 79.5112 70.1115 73.9345C75.6432 78.4768 80.6802 82.5018 80.6802 82.5018C80.6802 82.5018 94.4418 77.0601 94.0821 75.621C93.7223 74.1594 80.0056 52.1452 74.9236 46.3437C72.9448 44.0725 70.9885 42.3861 68.8973 41.0594C71.4832 38.2486 73.1472 34.8981 73.8443 33.3915C75.5982 29.6138 76.5426 23.6773 75.868 21.3837C75.868 21.3837 75.8006 21.1589 75.6657 20.7991C75.4633 20.2369 75.1035 19.315 74.6313 18.2131C73.6869 16.0544 72.3827 13.1087 70.4938 11.2648C65.2994 6.22787 57.6091 2.65253 49.9862 2.5401C42.5881 2.42766 41.0815 8.56646 39.5974 14.7727C38.9903 17.3362 37.4837 25.004 37.3263 30.4008C37.2813 31.5476 36.4718 32.5145 35.325 32.7394H35.3025C34.9577 32.7993 34.6205 32.8668 34.2907 32.9417C32.7841 33.279 31.3449 33.7288 30.1756 34.156C29.9058 34.246 29.6509 34.3434 29.4111 34.4483C29.1712 34.5383 28.9464 34.6282 28.7365 34.7182C28.3093 34.8981 27.9495 35.078 27.6572 35.2354C27.6572 35.2354 26.2855 35.9999 22.9125 40.2948C22.8975 40.3098 22.8825 40.3248 22.8675 40.3398C20.394 43.5104 16.8187 48.5473 11.9391 56.575C4.67602 68.5153 2.33743 74.9689 2.56229 78.4318Z" fill="url(#paint0_linear_1_4285)"/>
<path style="mix-blend-mode:multiply" d="M19.5389 68.3356C21.2254 67.2338 23.3616 66.3793 25.6327 65.7497C27.3866 65.2325 28.8932 64.0857 29.8826 62.5566C31.8839 59.4535 33.6154 56.238 33.9976 53.8994C34.2675 52.2354 33.6379 48.3227 33.1657 45.8042C33.1357 45.6393 33.1282 45.4819 33.1432 45.332C32.5135 47.3783 32.536 50.4365 31.8839 52.3028C28.1512 63.5011 20.2135 67.5261 19.5389 68.3356Z" fill="url(#paint1_linear_1_4285)"/>
<path style="mix-blend-mode:multiply" d="M2.56165 78.4333C2.57664 78.5383 2.59163 78.6432 2.60662 78.7481C2.89894 81.4465 5.14759 82.7732 7.7785 83.178C11.084 84.2798 15.7837 84.7295 21.1354 84.2348C21.945 84.1674 22.8669 84.0774 23.8788 83.9875C33.458 83.1555 51.2673 81.7163 51.2673 81.7163C51.2673 81.7163 54.8201 76.9042 57.0463 73.9135C55.3598 73.5987 53.1336 73.2165 50.3903 72.7667C48.3215 75.69 45.2409 77.7812 38.7648 78.6582C29.343 79.9399 22.3722 81.2891 14.0972 80.4346C9.68984 79.9849 6.4518 77.9836 6.78909 75.2402C7.89093 65.5486 17.785 47.402 22.8669 40.3413C20.3934 43.5119 16.818 48.5489 11.9385 56.5765C4.67537 68.5168 2.33678 74.9704 2.56165 78.4333Z" fill="url(#paint2_linear_1_4285)"/>
<path d="M77.9586 84.2555H33.8178C33.2331 84.2555 32.7609 83.7833 32.7609 83.1987V82.5466C32.7609 81.9619 33.2331 81.5122 33.8178 81.5122H77.9586C78.5433 81.5122 79.0155 81.9619 79.0155 82.5466V83.1987C79.0155 83.7833 78.5433 84.2555 77.9586 84.2555Z" fill="white"/>
<path d="M68.6266 84.2555H23.1365C22.7318 84.2555 22.3945 83.9182 22.3945 83.5135V82.8839C22.3945 82.1193 23.0241 81.5122 23.7886 81.5122H68.6266C68.6416 81.5122 68.649 81.5122 68.649 81.5122V84.2331C68.649 84.2481 68.6416 84.2555 68.6266 84.2555Z" fill="white"/>
<path d="M68.6266 84.2555H23.1365C22.7318 84.2555 22.3945 83.9182 22.3945 83.5135V82.8839C22.3945 82.1193 23.0241 81.5122 23.7886 81.5122H68.6266C68.6416 81.5122 68.649 81.5122 68.649 81.5122V84.2331C68.649 84.2481 68.6416 84.2555 68.6266 84.2555Z" fill="white"/>
<path d="M102.761 84.2564H50.7723C49.7154 84.2564 48.9958 83.1546 49.4231 82.1877L64.7588 46.749C65.0062 46.2094 65.5233 45.8721 66.1305 45.8721H118.119C119.176 45.8721 119.896 46.9514 119.468 47.9408L104.133 83.3569C103.885 83.8966 103.368 84.2564 102.761 84.2564Z" fill="url(#paint3_linear_1_4285)"/>
<path d="M102.761 84.2564H50.7723C49.7154 84.2564 48.9958 83.1546 49.4231 82.1877L64.7588 46.749C65.0062 46.2094 65.5233 45.8721 66.1305 45.8721H118.119C119.176 45.8721 119.896 46.9514 119.468 47.9408L104.133 83.3569C103.885 83.8966 103.368 84.2564 102.761 84.2564Z" fill="white"/>
<path d="M105.302 84.2564H53.3136C52.2568 84.2564 51.5372 83.1546 51.9644 82.1877L67.3002 46.749C67.5475 46.2094 68.0647 45.8721 68.6719 45.8721H120.66C121.717 45.8721 122.437 46.9514 122.01 47.9408L106.674 83.3569C106.427 83.8966 105.909 84.2564 105.302 84.2564Z" fill="url(#paint4_linear_1_4285)"/>
<path style="mix-blend-mode:multiply" d="M54.6181 43.0391C54.6181 43.0391 55.8774 45.4226 58.8905 44.8155C64.9619 43.6237 68.8071 39.2389 70.8758 33.7297C72.1575 30.3342 72.6073 27.2761 73.057 25.0049C73.5517 22.3515 75.3281 20.755 75.3281 20.755C74.9833 20.6801 74.646 20.6426 74.3162 20.6426C72.0901 20.6426 70.1562 22.2841 69.8189 24.5777C69.4367 27.2086 68.8295 29.6821 68.1774 31.1212C66.7608 34.2469 66.9182 36.6979 64.6246 38.8341C59.1604 43.8711 56.7318 43.7586 54.6181 43.0391Z" fill="url(#paint5_linear_1_4285)"/>
<path style="mix-blend-mode:multiply" d="M35.0548 43.668C38.6977 43.8479 46.2981 46.1864 51.0652 32.852C52.3919 29.1642 55.3601 21.4963 60.2621 18.6631C62.2634 17.5162 64.6695 17.3364 66.7832 17.4938C53.4937 14.9303 50.8628 24.7344 45.511 33.9988C41.1487 41.5542 36.6964 42.4537 35.0548 43.668Z" fill="url(#paint6_linear_1_4285)"/>
<path d="M42.3624 54.3722C42.5198 51.5838 42.6548 48.7281 42.6323 46.9966C42.6323 46.7493 42.8122 46.5469 43.0595 46.5469C43.3069 46.5469 43.5093 46.7268 43.5093 46.9741C43.5317 48.7505 43.3743 51.6288 43.2394 54.4171C43.1045 56.8457 42.9921 59.3866 42.9921 61.0281C42.9921 61.253 42.7897 61.4554 42.5423 61.4554C42.295 61.4554 42.1151 61.253 42.1151 61.0281C42.1151 59.3641 42.2275 56.9356 42.3624 54.3722Z" fill="url(#paint7_linear_1_4285)"/>
<path d="M53.988 47.8521C53.988 47.6047 54.1679 47.4023 54.4152 47.4023C54.6626 47.4023 54.865 47.5822 54.865 47.8296C54.9099 50.6629 54.775 53.8335 54.6401 56.9141C54.5726 58.2858 54.5052 59.6125 54.4602 60.8717C54.4602 61.1191 54.2578 61.299 54.033 61.299C54.033 61.299 54.0255 61.299 54.0105 61.299C53.7856 61.299 53.5832 61.0741 53.5832 60.8492C53.6282 59.5675 53.6957 58.2408 53.7631 56.8691C53.898 53.811 54.033 50.6629 53.988 47.8521Z" fill="url(#paint8_linear_1_4285)"/>
<defs>
<linearGradient id="paint0_linear_1_4285" x1="99.3455" y1="71.3589" x2="82.6869" y2="-8.34066" gradientUnits="userSpaceOnUse">
<stop stop-color="#FF00C1"/>
<stop offset="1" stop-color="#F4AC24"/>
</linearGradient>
<linearGradient id="paint1_linear_1_4285" x1="44.9166" y1="70.7979" x2="46.0521" y2="44.4503" gradientUnits="userSpaceOnUse">
<stop stop-color="#F4D63B" stop-opacity="0"/>
<stop offset="1" stop-color="#5C1CB2"/>
</linearGradient>
<linearGradient id="paint2_linear_1_4285" x1="1.73257" y1="52.9231" x2="22.1694" y2="115.868" gradientUnits="userSpaceOnUse">
<stop stop-color="#F4D63B" stop-opacity="0"/>
<stop offset="1" stop-color="#5C1CB2"/>
</linearGradient>
<linearGradient id="paint3_linear_1_4285" x1="74.974" y1="41.9203" x2="64.5063" y2="82.9535" gradientUnits="userSpaceOnUse">
<stop stop-color="#A76DFC"/>
<stop offset="1" stop-color="#5C1CB2"/>
</linearGradient>
<linearGradient id="paint4_linear_1_4285" x1="77.5158" y1="41.9203" x2="67.0481" y2="82.9535" gradientUnits="userSpaceOnUse">
<stop stop-color="#A76DFC"/>
<stop offset="1" stop-color="#5C1CB2"/>
</linearGradient>
<linearGradient id="paint5_linear_1_4285" x1="92.7753" y1="51.214" x2="72.7462" y2="6.05384" gradientUnits="userSpaceOnUse">
<stop stop-color="#F4D63B" stop-opacity="0"/>
<stop offset="1" stop-color="#5C1CB2"/>
</linearGradient>
<linearGradient id="paint6_linear_1_4285" x1="42.0214" y1="6.14936" x2="32.6259" y2="47.8905" gradientUnits="userSpaceOnUse">
<stop stop-color="#F4D63B" stop-opacity="0"/>
<stop offset="1" stop-color="#5C1CB2"/>
</linearGradient>
<linearGradient id="paint7_linear_1_4285" x1="-37.279" y1="48.6856" x2="-36.1154" y2="67.1863" gradientUnits="userSpaceOnUse">
<stop stop-color="#F4AC24"/>
<stop offset="1" stop-color="#FF00C1"/>
</linearGradient>
<linearGradient id="paint8_linear_1_4285" x1="-21.9637" y1="47.7214" x2="-20.801" y2="66.2118" gradientUnits="userSpaceOnUse">
<stop stop-color="#F4AC24"/>
<stop offset="1" stop-color="#FF00C1"/>
</linearGradient>
</defs>
</svg>
