<svg width="389" height="622" viewBox="0 0 389 622" fill="none" xmlns="http://www.w3.org/2000/svg">
<rect x="0.5" y="0.5" width="388" height="621" rx="23.5" fill="url(#paint0_linear_1_4239)"/>
<rect x="0.5" y="0.5" width="388" height="621" rx="23.5" stroke="url(#paint1_linear_1_4239)"/>
<g opacity="0.2">
<path d="M78.8906 58C78.8906 58.2859 78.777 58.5602 78.5749 58.7624C78.3727 58.9645 78.0984 59.0781 77.8125 59.0781H63.0781V73.8125C63.0781 74.0984 62.9645 74.3727 62.7624 74.5749C62.5602 74.777 62.2859 74.8906 62 74.8906C61.7141 74.8906 61.4398 74.777 61.2377 74.5749C61.0355 74.3727 60.9219 74.0984 60.9219 73.8125V59.0781H46.1875C45.9016 59.0781 45.6273 58.9645 45.4252 58.7624C45.223 58.5602 45.1094 58.2859 45.1094 58C45.1094 57.7141 45.223 57.4398 45.4252 57.2377C45.6273 57.0355 45.9016 56.9219 46.1875 56.9219H60.9219V42.1875C60.9219 41.9016 61.0355 41.6273 61.2377 41.4252C61.4398 41.223 61.7141 41.1094 62 41.1094C62.2859 41.1094 62.5602 41.223 62.7624 41.4252C62.9645 41.6273 63.0781 41.9016 63.0781 42.1875V56.9219H77.8125C78.0984 56.9219 78.3727 57.0355 78.5749 57.2377C78.777 57.4398 78.8906 57.7141 78.8906 58Z" fill="#E4ECFF"/>
</g>
<g opacity="0.2">
<path d="M78.8906 554C78.8906 554.286 78.777 554.56 78.5749 554.762C78.3727 554.965 78.0984 555.078 77.8125 555.078H63.0781V569.812C63.0781 570.098 62.9645 570.373 62.7624 570.575C62.5602 570.777 62.2859 570.891 62 570.891C61.7141 570.891 61.4398 570.777 61.2377 570.575C61.0355 570.373 60.9219 570.098 60.9219 569.812V555.078H46.1875C45.9016 555.078 45.6273 554.965 45.4252 554.762C45.223 554.56 45.1094 554.286 45.1094 554C45.1094 553.714 45.223 553.44 45.4252 553.238C45.6273 553.035 45.9016 552.922 46.1875 552.922H60.9219V538.188C60.9219 537.902 61.0355 537.627 61.2377 537.425C61.4398 537.223 61.7141 537.109 62 537.109C62.2859 537.109 62.5602 537.223 62.7624 537.425C62.9645 537.627 63.0781 537.902 63.0781 538.188V552.922H77.8125C78.0984 552.922 78.3727 553.035 78.5749 553.238C78.777 553.44 78.8906 553.714 78.8906 554Z" fill="#E4ECFF"/>
</g>
<g opacity="0.2">
<path d="M325.891 488C325.891 488.286 325.777 488.56 325.575 488.762C325.373 488.965 325.098 489.078 324.812 489.078H310.078V503.812C310.078 504.098 309.965 504.373 309.762 504.575C309.56 504.777 309.286 504.891 309 504.891C308.714 504.891 308.44 504.777 308.238 504.575C308.035 504.373 307.922 504.098 307.922 503.812V489.078H293.188C292.902 489.078 292.627 488.965 292.425 488.762C292.223 488.56 292.109 488.286 292.109 488C292.109 487.714 292.223 487.44 292.425 487.238C292.627 487.035 292.902 486.922 293.188 486.922H307.922V472.188C307.922 471.902 308.035 471.627 308.238 471.425C308.44 471.223 308.714 471.109 309 471.109C309.286 471.109 309.56 471.223 309.762 471.425C309.965 471.627 310.078 471.902 310.078 472.188V486.922H324.812C325.098 486.922 325.373 487.035 325.575 487.238C325.777 487.44 325.891 487.714 325.891 488Z" fill="#E4ECFF"/>
</g>
<g opacity="0.2">
<path d="M331.891 118C331.891 118.286 331.777 118.56 331.575 118.762C331.373 118.965 331.098 119.078 330.812 119.078H316.078V133.812C316.078 134.098 315.965 134.373 315.762 134.575C315.56 134.777 315.286 134.891 315 134.891C314.714 134.891 314.44 134.777 314.238 134.575C314.035 134.373 313.922 134.098 313.922 133.812V119.078H299.188C298.902 119.078 298.627 118.965 298.425 118.762C298.223 118.56 298.109 118.286 298.109 118C298.109 117.714 298.223 117.44 298.425 117.238C298.627 117.035 298.902 116.922 299.188 116.922H313.922V102.188C313.922 101.902 314.035 101.627 314.238 101.425C314.44 101.223 314.714 101.109 315 101.109C315.286 101.109 315.56 101.223 315.762 101.425C315.965 101.627 316.078 101.902 316.078 102.188V116.922H330.812C331.098 116.922 331.373 117.035 331.575 117.238C331.777 117.44 331.891 117.714 331.891 118Z" fill="#E4ECFF"/>
</g>
<defs>
<linearGradient id="paint0_linear_1_4239" x1="80.8158" y1="1.00001" x2="385.34" y2="46.2741" gradientUnits="userSpaceOnUse">
<stop stop-color="#04071D"/>
<stop offset="1" stop-color="#0C0E23"/>
</linearGradient>
<linearGradient id="paint1_linear_1_4239" x1="194.5" y1="1" x2="194.5" y2="621" gradientUnits="userSpaceOnUse">
<stop stop-color="#363749" stop-opacity="0.43"/>
<stop offset="1" stop-color="#363749" stop-opacity="0.49"/>
</linearGradient>
</defs>
</svg>
