<svg width="1440" height="1521" viewBox="0 0 1440 1521" fill="none" xmlns="http://www.w3.org/2000/svg">
<line x1="10" y1="-0.3" x2="1450" y2="-0.299874" stroke="#161A31" stroke-width="0.6"/>
<line x1="10" y1="112.2" x2="1450" y2="112.2" stroke="#161A31" stroke-width="0.6"/>
<line x1="10" y1="224.7" x2="1450" y2="224.7" stroke="#161A31" stroke-width="0.6"/>
<line x1="10" y1="337.2" x2="1450" y2="337.2" stroke="#161A31" stroke-width="0.6"/>
<line x1="10" y1="449.7" x2="1450" y2="449.7" stroke="#161A31" stroke-width="0.6"/>
<line x1="10" y1="562.2" x2="1450" y2="562.2" stroke="#161A31" stroke-width="0.6"/>
<line x1="10" y1="674.7" x2="1450" y2="674.7" stroke="#161A31" stroke-width="0.6"/>
<line x1="10" y1="787.2" x2="1450" y2="787.2" stroke="#161A31" stroke-width="0.6"/>
<line x1="10" y1="899.7" x2="1450" y2="899.7" stroke="#161A31" stroke-width="0.6"/>
<line x1="9.7" y1="900" x2="9.70006" y2="-540" stroke="#161A31" stroke-width="0.6"/>
<line x1="120.469" y1="900" x2="120.469" y2="-540" stroke="#161A31" stroke-width="0.6"/>
<line x1="231.238" y1="900" x2="231.239" y2="-540" stroke="#161A31" stroke-width="0.6"/>
<line x1="342.008" y1="900" x2="342.008" y2="-540" stroke="#161A31" stroke-width="0.6"/>
<line x1="452.777" y1="900" x2="452.777" y2="-540" stroke="#161A31" stroke-width="0.6"/>
<line x1="563.546" y1="900" x2="563.546" y2="-540" stroke="#161A31" stroke-width="0.6"/>
<line x1="674.315" y1="900" x2="674.315" y2="-540" stroke="#161A31" stroke-width="0.6"/>
<line x1="785.085" y1="900" x2="785.085" y2="-540" stroke="#161A31" stroke-width="0.6"/>
<line x1="895.854" y1="900" x2="895.854" y2="-540" stroke="#161A31" stroke-width="0.6"/>
<line x1="1006.62" y1="900" x2="1006.62" y2="-540" stroke="#161A31" stroke-width="0.6"/>
<line x1="1117.39" y1="900" x2="1117.39" y2="-540" stroke="#161A31" stroke-width="0.6"/>
<line x1="1228.16" y1="900" x2="1228.16" y2="-540" stroke="#161A31" stroke-width="0.6"/>
<line x1="1338.93" y1="900" x2="1338.93" y2="-540" stroke="#161A31" stroke-width="0.6"/>
<path d="M120.5 100.5L120.5 124.5" stroke="url(#paint0_linear_21_4)"/>
<path d="M132.5 112.5L108.5 112.5" stroke="url(#paint1_linear_21_4)"/>
<g opacity="0.47">
<rect x="342.5" y="113.5" width="109" height="110" fill="#0C0F24"/>
<rect x="342.5" y="113.5" width="109" height="110" fill="#0C0F24"/>
<rect x="342.5" y="113.5" width="109" height="110" fill="#0C0F24"/>
<rect x="342.5" y="113.5" width="109" height="110" fill="#0C0F24"/>
<rect x="342.5" y="113.5" width="109" height="110" stroke="#0C0F24"/>
</g>
<g opacity="0.47">
<rect x="896.5" y="1.5" width="110" height="110" fill="#0C0F24"/>
<rect x="896.5" y="1.5" width="110" height="110" fill="#0C0F24"/>
<rect x="896.5" y="1.5" width="110" height="110" fill="#0C0F24"/>
<rect x="896.5" y="1.5" width="110" height="110" fill="#0C0F24"/>
<rect x="896.5" y="1.5" width="110" height="110" stroke="#0C0F24"/>
</g>
<g opacity="0.47">
<rect x="1228.5" y="225.5" width="110" height="111" fill="#0C0F24"/>
<rect x="1228.5" y="225.5" width="110" height="111" fill="#0C0F24"/>
<rect x="1228.5" y="225.5" width="110" height="111" fill="#0C0F24"/>
<rect x="1228.5" y="225.5" width="110" height="111" fill="#0C0F24"/>
<rect x="1228.5" y="225.5" width="110" height="111" stroke="#0C0F24"/>
</g>
<path d="M1228 101L1228 125" stroke="url(#paint2_linear_21_4)"/>
<path d="M1240 113L1216 113" stroke="url(#paint3_linear_21_4)"/>
<g clip-path="url(#clip0_21_4)">
<rect x="10" y="462" width="1440" height="1059" rx="24" fill="#000319"/>
<line x1="10" y1="564.2" x2="1450" y2="564.2" stroke="#161A31" stroke-width="0.6"/>
<line x1="10" y1="676.7" x2="1450" y2="676.7" stroke="#161A31" stroke-width="0.6"/>
<line x1="10" y1="789.2" x2="1450" y2="789.2" stroke="#161A31" stroke-width="0.6"/>
<line x1="10" y1="901.7" x2="1450" y2="901.7" stroke="#161A31" stroke-width="0.6"/>
<line x1="10" y1="1014.2" x2="1450" y2="1014.2" stroke="#161A31" stroke-width="0.6"/>
<line x1="9.7" y1="1144" x2="9.70006" y2="-296" stroke="#161A31" stroke-width="0.6"/>
<line x1="120.469" y1="1144" x2="120.469" y2="-296" stroke="#161A31" stroke-width="0.6"/>
<line x1="231.238" y1="1144" x2="231.239" y2="-296" stroke="#161A31" stroke-width="0.6"/>
<line x1="342.008" y1="1144" x2="342.008" y2="-296" stroke="#161A31" stroke-width="0.6"/>
<line x1="452.777" y1="1144" x2="452.777" y2="-296" stroke="#161A31" stroke-width="0.6"/>
<line x1="563.546" y1="1144" x2="563.546" y2="-296" stroke="#161A31" stroke-width="0.6"/>
<line x1="674.315" y1="1144" x2="674.315" y2="-296" stroke="#161A31" stroke-width="0.6"/>
<line x1="785.085" y1="1144" x2="785.085" y2="-296" stroke="#161A31" stroke-width="0.6"/>
<line x1="895.854" y1="1144" x2="895.854" y2="-296" stroke="#161A31" stroke-width="0.6"/>
<line x1="1006.62" y1="1144" x2="1006.62" y2="-296" stroke="#161A31" stroke-width="0.6"/>
<line x1="1117.39" y1="1144" x2="1117.39" y2="-296" stroke="#161A31" stroke-width="0.6"/>
<line x1="1228.16" y1="1144" x2="1228.16" y2="-296" stroke="#161A31" stroke-width="0.6"/>
<line x1="1338.93" y1="1144" x2="1338.93" y2="-296" stroke="#161A31" stroke-width="0.6"/>
<g opacity="0.47">
<rect x="1228.5" y="678.5" width="110" height="111" fill="#0C0F24"/>
<rect x="1228.5" y="678.5" width="110" height="111" fill="#0C0F24"/>
<rect x="1228.5" y="678.5" width="110" height="111" fill="#0C0F24"/>
<rect x="1228.5" y="678.5" width="110" height="111" fill="#0C0F24"/>
<rect x="1228.5" y="678.5" width="110" height="111" stroke="#0C0F24"/>
</g>
<g opacity="0.47">
<path d="M451.5 566.5V676.5H342.5V566.5H451.5Z" fill="#0C0F24"/>
<path d="M451.5 566.5V676.5H342.5V566.5H451.5Z" fill="#0C0F24"/>
<path d="M451.5 566.5V676.5H342.5V566.5H451.5Z" fill="#0C0F24"/>
<path d="M451.5 566.5V676.5H342.5V566.5H451.5Z" fill="#0C0F24"/>
<path d="M451.5 566.5V676.5H342.5V566.5H451.5Z" stroke="#0C0F24"/>
</g>
</g>
<g clip-path="url(#clip1_21_4)">
<mask id="mask0_21_4" style="mask-type:luminance" maskUnits="userSpaceOnUse" x="868" y="0" width="805" height="608">
<path d="M868 0H1673V608H868V0Z" fill="white"/>
</mask>
<g mask="url(#mask0_21_4)">
<g opacity="0.2" filter="url(#filter0_f_21_4)">
<path d="M1955.16 -390.853L1980 -366.012L1544.19 69.7951L1240.16 359.214L1519.35 44.9541L1955.16 -390.853Z" fill="url(#paint4_linear_21_4)"/>
</g>
<g opacity="0.32" filter="url(#filter1_f_21_4)">
<path d="M1748.07 -380.376L1772.92 -355.535L1337.11 80.2726L1033.07 369.691L1312.27 55.4316L1748.07 -380.376Z" fill="url(#paint5_linear_21_4)"/>
</g>
<g opacity="0.32" filter="url(#filter2_f_21_4)">
<path d="M1668.57 -487L1693.41 -462.159L1257.6 -26.3516L953.566 263.067L1232.76 -51.1927L1668.57 -487Z" fill="url(#paint6_linear_21_4)"/>
</g>
</g>
<g opacity="0.47">
<path d="M1007.5 450.5V561.5H897.5V450.5H1007.5Z" fill="#0C0F24"/>
<path d="M1007.5 450.5V561.5H897.5V450.5H1007.5Z" fill="#0C0F24"/>
<path d="M1007.5 450.5V561.5H897.5V450.5H1007.5Z" fill="#0C0F24"/>
<path d="M1007.5 450.5V561.5H897.5V450.5H1007.5Z" fill="#0C0F24"/>
<path d="M1007.5 450.5V561.5H897.5V450.5H1007.5Z" stroke="#0C0F24"/>
</g>
</g>
<g clip-path="url(#clip2_21_4)">
<mask id="mask1_21_4" style="mask-type:luminance" maskUnits="userSpaceOnUse" x="-233" y="0" width="805" height="608">
<path d="M572 0H-233V608H572V0Z" fill="white"/>
</mask>
<g mask="url(#mask1_21_4)">
<g opacity="0.2" filter="url(#filter3_f_21_4)">
<path d="M-515.159 -390.853L-540 -366.012L-104.193 69.7951L199.843 359.214L-79.352 44.9541L-515.159 -390.853Z" fill="url(#paint7_linear_21_4)"/>
</g>
<g opacity="0.32" filter="url(#filter4_f_21_4)">
<path d="M-308.074 -380.376L-332.915 -355.535L102.892 80.2726L406.929 369.691L127.733 55.4316L-308.074 -380.376Z" fill="url(#paint8_linear_21_4)"/>
</g>
<g opacity="0.32" filter="url(#filter5_f_21_4)">
<path d="M-228.568 -487L-253.409 -462.159L182.398 -26.3516L486.434 263.067L207.239 -51.1927L-228.568 -487Z" fill="url(#paint9_linear_21_4)"/>
</g>
</g>
</g>
<defs>
<filter id="filter0_f_21_4" x="1160.16" y="-470.853" width="899.843" height="910.067" filterUnits="userSpaceOnUse" color-interpolation-filters="sRGB">
<feFlood flood-opacity="0" result="BackgroundImageFix"/>
<feBlend mode="normal" in="SourceGraphic" in2="BackgroundImageFix" result="shape"/>
<feGaussianBlur stdDeviation="40" result="effect1_foregroundBlur_21_4"/>
</filter>
<filter id="filter1_f_21_4" x="953.071" y="-460.376" width="899.844" height="910.067" filterUnits="userSpaceOnUse" color-interpolation-filters="sRGB">
<feFlood flood-opacity="0" result="BackgroundImageFix"/>
<feBlend mode="normal" in="SourceGraphic" in2="BackgroundImageFix" result="shape"/>
<feGaussianBlur stdDeviation="40" result="effect1_foregroundBlur_21_4"/>
</filter>
<filter id="filter2_f_21_4" x="873.566" y="-567" width="899.843" height="910.067" filterUnits="userSpaceOnUse" color-interpolation-filters="sRGB">
<feFlood flood-opacity="0" result="BackgroundImageFix"/>
<feBlend mode="normal" in="SourceGraphic" in2="BackgroundImageFix" result="shape"/>
<feGaussianBlur stdDeviation="40" result="effect1_foregroundBlur_21_4"/>
</filter>
<filter id="filter3_f_21_4" x="-620" y="-470.853" width="899.843" height="910.067" filterUnits="userSpaceOnUse" color-interpolation-filters="sRGB">
<feFlood flood-opacity="0" result="BackgroundImageFix"/>
<feBlend mode="normal" in="SourceGraphic" in2="BackgroundImageFix" result="shape"/>
<feGaussianBlur stdDeviation="40" result="effect1_foregroundBlur_21_4"/>
</filter>
<filter id="filter4_f_21_4" x="-412.915" y="-460.376" width="899.844" height="910.067" filterUnits="userSpaceOnUse" color-interpolation-filters="sRGB">
<feFlood flood-opacity="0" result="BackgroundImageFix"/>
<feBlend mode="normal" in="SourceGraphic" in2="BackgroundImageFix" result="shape"/>
<feGaussianBlur stdDeviation="40" result="effect1_foregroundBlur_21_4"/>
</filter>
<filter id="filter5_f_21_4" x="-333.409" y="-567" width="899.843" height="910.067" filterUnits="userSpaceOnUse" color-interpolation-filters="sRGB">
<feFlood flood-opacity="0" result="BackgroundImageFix"/>
<feBlend mode="normal" in="SourceGraphic" in2="BackgroundImageFix" result="shape"/>
<feGaussianBlur stdDeviation="40" result="effect1_foregroundBlur_21_4"/>
</filter>
<linearGradient id="paint0_linear_21_4" x1="120.5" y1="124.5" x2="120.5" y2="100.5" gradientUnits="userSpaceOnUse">
<stop stop-color="#C34124" stop-opacity="0"/>
<stop offset="0.50284" stop-color="#F99A85"/>
<stop offset="1" stop-color="#C34124" stop-opacity="0"/>
</linearGradient>
<linearGradient id="paint1_linear_21_4" x1="108.5" y1="112.5" x2="132.5" y2="112.5" gradientUnits="userSpaceOnUse">
<stop stop-color="#C34124" stop-opacity="0"/>
<stop offset="0.50284" stop-color="#F99A85"/>
<stop offset="1" stop-color="#C34124" stop-opacity="0"/>
</linearGradient>
<linearGradient id="paint2_linear_21_4" x1="1228" y1="125" x2="1228" y2="101" gradientUnits="userSpaceOnUse">
<stop stop-color="white" stop-opacity="0"/>
<stop offset="0.50284" stop-color="white"/>
<stop offset="1" stop-color="white" stop-opacity="0"/>
</linearGradient>
<linearGradient id="paint3_linear_21_4" x1="1216" y1="113" x2="1240" y2="113" gradientUnits="userSpaceOnUse">
<stop stop-color="white" stop-opacity="0"/>
<stop offset="0.50284" stop-color="white"/>
<stop offset="1" stop-color="white" stop-opacity="0"/>
</linearGradient>
<linearGradient id="paint4_linear_21_4" x1="1967.58" y1="-378.433" x2="1531.77" y2="57.3746" gradientUnits="userSpaceOnUse">
<stop stop-color="white"/>
<stop offset="1" stop-color="#D3D8DF"/>
</linearGradient>
<linearGradient id="paint5_linear_21_4" x1="1760.49" y1="-367.955" x2="1324.69" y2="67.8521" gradientUnits="userSpaceOnUse">
<stop stop-color="white"/>
<stop offset="1" stop-color="#D3D8DF"/>
</linearGradient>
<linearGradient id="paint6_linear_21_4" x1="1680.99" y1="-474.579" x2="1245.18" y2="-38.7722" gradientUnits="userSpaceOnUse">
<stop stop-color="white"/>
<stop offset="1" stop-color="#D3D8DF"/>
</linearGradient>
<linearGradient id="paint7_linear_21_4" x1="-527.58" y1="-378.433" x2="-91.772" y2="57.3746" gradientUnits="userSpaceOnUse">
<stop stop-color="white"/>
<stop offset="1" stop-color="#D3D8DF"/>
</linearGradient>
<linearGradient id="paint8_linear_21_4" x1="-320.495" y1="-367.955" x2="115.313" y2="67.8521" gradientUnits="userSpaceOnUse">
<stop stop-color="white"/>
<stop offset="1" stop-color="#D3D8DF"/>
</linearGradient>
<linearGradient id="paint9_linear_21_4" x1="-240.989" y1="-474.579" x2="194.819" y2="-38.7722" gradientUnits="userSpaceOnUse">
<stop stop-color="white"/>
<stop offset="1" stop-color="#D3D8DF"/>
</linearGradient>
<clipPath id="clip0_21_4">
<rect x="10" y="462" width="1440" height="1059" rx="24" fill="white"/>
</clipPath>
<clipPath id="clip1_21_4">
<rect width="805" height="608" fill="white" transform="matrix(-1 0 0 1 1673 0)"/>
</clipPath>
<clipPath id="clip2_21_4">
<rect width="805" height="608" fill="white" transform="translate(-233)"/>
</clipPath>
</defs>
</svg>
