<svg width="1260" height="1113" viewBox="0 0 1260 1113" fill="none" xmlns="http://www.w3.org/2000/svg">
<mask id="mask0_1_4206" style="mask-type:luminance" maskUnits="userSpaceOnUse" x="0" y="0" width="1260" height="1113">
<path d="M1259.37 0.5V1112.15H0.5V0.5H1259.37Z" fill="white" stroke="white"/>
</mask>
<g mask="url(#mask0_1_4206)">
<path d="M310.031 768.47H217.452V865.235H310.031V768.47Z" fill="url(#paint0_radial_1_4206)" fill-opacity="0.06"/>
<path d="M680.346 478.176H587.767V574.941H680.346V478.176Z" fill="url(#paint1_radial_1_4206)" fill-opacity="0.06"/>
<path d="M587.767 1058.76H495.188V1155.53H587.767V1058.76Z" fill="url(#paint2_radial_1_4206)" fill-opacity="0.06"/>
<path d="M958.084 865.234H865.505V961.998H958.084V865.234Z" fill="url(#paint3_radial_1_4206)" fill-opacity="0.06"/>
<path d="M680.347 768.47H587.768V865.235H680.347V768.47Z" fill="url(#paint4_radial_1_4206)" fill-opacity="0.06"/>
<path d="M32.2931 91.1191H-60.2859V187.884M32.2931 91.1191V187.884M32.2931 91.1191H124.872M-60.2859 187.884H32.2931M-60.2859 187.884V284.648M32.2931 187.884H124.872M32.2931 187.884V284.648M124.872 91.1191V187.884M124.872 91.1191H217.451M124.872 187.884H217.451M124.872 187.884V284.648M32.2931 284.648H-60.2859M32.2931 284.648H124.872M32.2931 284.648V381.413M-60.2859 284.648V381.413M217.451 91.1191V187.884M217.451 91.1191H310.03M217.451 187.884H310.03M217.451 187.884V284.648M124.872 284.648H217.451M124.872 284.648V381.413M310.03 91.1191V187.884M310.03 91.1191H402.609M310.03 187.884H402.609M310.03 187.884V284.648M217.451 284.648H310.03M217.451 284.648V381.413M402.609 91.1191V187.884M402.609 91.1191H495.188M402.609 187.884H495.188M402.609 187.884V284.648M310.03 284.648H402.609M310.03 284.648V381.413M495.188 91.1191V187.884M495.188 91.1191H587.767M495.188 187.884H587.767M495.188 187.884V284.648M402.609 284.648H495.188M402.609 284.648V381.413M587.767 91.1191V187.884M587.767 91.1191H680.346M587.767 187.884H680.346M587.767 187.884V284.648M495.188 284.648H587.767M495.188 284.648V381.413M680.346 91.1191V187.884M680.346 91.1191H772.925M680.346 187.884H772.925M680.346 187.884V284.648M587.767 284.648H680.346M587.767 284.648V381.413M772.925 91.1191V187.884M772.925 91.1191H865.504M772.925 187.884H865.504M772.925 187.884V284.648M680.346 284.648H772.925M680.346 284.648V381.413M865.504 91.1191V187.884M865.504 91.1191H958.084M865.504 187.884H958.084M865.504 187.884V284.648M772.925 284.648H865.504M772.925 284.648V381.413M958.084 91.1191V187.884M958.084 91.1191H1050.66M958.084 187.884H1050.66M958.084 187.884V284.648M865.504 284.648H958.084M865.504 284.648V381.413M1050.66 91.1191V187.884M1050.66 91.1191H1143.24M1050.66 187.884H1143.24M1050.66 187.884V284.648M958.084 284.648H1050.66M958.084 284.648V381.413M1143.24 91.1191V187.884M1143.24 91.1191H1235.82M1143.24 187.884H1235.82M1143.24 187.884V284.648M1050.66 284.648H1143.24M1050.66 284.648V381.413M1235.82 91.1191V187.884M1235.82 91.1191H1328.4V187.884M1235.82 187.884H1328.4M1235.82 187.884V284.648M1143.24 284.648H1235.82M1143.24 284.648V381.413M1328.4 187.884V284.648M1235.82 284.648H1328.4M1235.82 284.648V381.413M1328.4 284.648V381.413M32.2931 381.413H-60.2859M32.2931 381.413H124.872M32.2931 381.413V478.176M-60.2859 381.413V478.176M124.872 381.413H217.451M124.872 381.413V478.176M217.451 381.413H310.03M217.451 381.413V478.176M310.03 381.413H402.609M310.03 381.413V478.176M402.609 381.413H495.188M402.609 381.413V478.176M495.188 381.413H587.767M495.188 381.413V478.176M587.767 381.413H680.346M587.767 381.413V478.176M680.346 381.413H772.925M680.346 381.413V478.176M772.925 381.413H865.504M772.925 381.413V478.176M865.504 381.413H958.084M865.504 381.413V478.176M958.084 381.413H1050.66M958.084 381.413V478.176M1050.66 381.413H1143.24M1050.66 381.413V478.176M1143.24 381.413H1235.82M1143.24 381.413V478.176M1235.82 381.413H1328.4M1235.82 381.413V478.176M1328.4 381.413V478.176M32.2931 478.176H-60.2859M32.2931 478.176H124.872M32.2931 478.176V574.941M-60.2859 478.176V574.941M124.872 478.176H217.451M124.872 478.176V574.941M217.451 478.176H310.03M217.451 478.176V574.941M310.03 478.176H402.609M310.03 478.176V574.941M402.609 478.176H495.188M402.609 478.176V574.941M495.188 478.176H587.767M495.188 478.176V574.941M587.767 478.176H680.346M587.767 478.176V574.941M680.346 478.176H772.925M680.346 478.176V574.941M772.925 478.176H865.504M772.925 478.176V574.941M865.504 478.176H958.084M865.504 478.176V574.941M958.084 478.176H1050.66M958.084 478.176V574.941M1050.66 478.176H1143.24M1050.66 478.176V574.941M1143.24 478.176H1235.82M1143.24 478.176V574.941M1235.82 478.176H1328.4M1235.82 478.176V574.941M1328.4 478.176V574.941M32.2931 574.941H-60.2859M32.2931 574.941H124.872M32.2931 574.941V671.706M-60.2859 574.941V671.706M124.872 574.941H217.451M124.872 574.941V671.706M217.451 574.941H310.03M217.451 574.941V671.706M310.03 574.941H402.609M310.03 574.941V671.706M402.609 574.941H495.188M402.609 574.941V671.706M495.188 574.941H587.767M495.188 574.941V671.706M587.767 574.941H680.346M587.767 574.941V671.706M680.346 574.941H772.925M680.346 574.941V671.706M772.925 574.941H865.504M772.925 574.941V671.706M865.504 574.941H958.084M865.504 574.941V671.706M958.084 574.941H1050.66M958.084 574.941V671.706M1050.66 574.941H1143.24M1050.66 574.941V671.706M1143.24 574.941H1235.82M1143.24 574.941V671.706M1235.82 574.941H1328.4M1235.82 574.941V671.706M1328.4 574.941V671.706M32.2931 671.706H-60.2859M32.2931 671.706H124.872M32.2931 671.706V768.469M-60.2859 671.706V768.469M124.872 671.706H217.451M124.872 671.706V768.469M217.451 671.706H310.03M217.451 671.706V768.469M310.03 671.706H402.609M310.03 671.706V768.469M402.609 671.706H495.188M402.609 671.706V768.469M495.188 671.706H587.767M495.188 671.706V768.469M587.767 671.706H680.346M587.767 671.706V768.469M680.346 671.706H772.925M680.346 671.706V768.469M772.925 671.706H865.504M772.925 671.706V768.469M865.504 671.706H958.084M865.504 671.706V768.469M958.084 671.706H1050.66M958.084 671.706V768.469M1050.66 671.706H1143.24M1050.66 671.706V768.469M1143.24 671.706H1235.82M1143.24 671.706V768.469M1235.82 671.706H1328.4M1235.82 671.706V768.469M1328.4 671.706V768.469M32.2931 768.469H-60.2859M32.2931 768.469H124.872M32.2931 768.469V865.234M-60.2859 768.469V865.234M124.872 768.469H217.451M124.872 768.469V865.234M217.451 768.469H310.03M217.451 768.469V865.234M310.03 768.469H402.609M310.03 768.469V865.234M402.609 768.469H495.188M402.609 768.469V865.234M495.188 768.469H587.767M495.188 768.469V865.234M587.767 768.469H680.346M587.767 768.469V865.234M680.346 768.469H772.925M680.346 768.469V865.234M772.925 768.469H865.504M772.925 768.469V865.234M865.504 768.469H958.084M865.504 768.469V865.234M958.084 768.469H1050.66M958.084 768.469V865.234M1050.66 768.469H1143.24M1050.66 768.469V865.234M1143.24 768.469H1235.82M1143.24 768.469V865.234M1235.82 768.469H1328.4M1235.82 768.469V865.234M1328.4 768.469V865.234M32.2931 865.234H-60.2859M32.2931 865.234H124.872M32.2931 865.234V961.998M-60.2859 865.234V961.998M124.872 865.234H217.451M124.872 865.234V961.998M217.451 865.234H310.03M217.451 865.234V961.998M310.03 865.234H402.609M310.03 865.234V961.998M402.609 865.234H495.188M402.609 865.234V961.998M495.188 865.234H587.767M495.188 865.234V961.998M587.767 865.234H680.346M587.767 865.234V961.998M680.346 865.234H772.925M680.346 865.234V961.998M772.925 865.234H865.504M772.925 865.234V961.998M865.504 865.234H958.084M865.504 865.234V961.998M958.084 865.234H1050.66M958.084 865.234V961.998M1050.66 865.234H1143.24M1050.66 865.234V961.998M1143.24 865.234H1235.82M1143.24 865.234V961.998M1235.82 865.234H1328.4M1235.82 865.234V961.998M1328.4 865.234V961.998M32.2931 961.998H-60.2859M32.2931 961.998H124.872M32.2931 961.998V1058.76M-60.2859 961.998V1058.76M124.872 961.998H217.451M124.872 961.998V1058.76M217.451 961.998H310.03M217.451 961.998V1058.76M310.03 961.998H402.609M310.03 961.998V1058.76M402.609 961.998H495.188M402.609 961.998V1058.76M495.188 961.998H587.767M495.188 961.998V1058.76M587.767 961.998H680.346M587.767 961.998V1058.76M680.346 961.998H772.925M680.346 961.998V1058.76M772.925 961.998H865.504M772.925 961.998V1058.76M865.504 961.998H958.084M865.504 961.998V1058.76M958.084 961.998H1050.66M958.084 961.998V1058.76M1050.66 961.998H1143.24M1050.66 961.998V1058.76M1143.24 961.998H1235.82M1143.24 961.998V1058.76M1235.82 961.998H1328.4M1235.82 961.998V1058.76M1328.4 961.998V1058.76M32.2931 1058.76H-60.2859M32.2931 1058.76H124.872M32.2931 1058.76V1155.53M-60.2859 1058.76V1155.53M124.872 1058.76V1155.53M124.872 1058.76H171.162H217.451M217.451 1058.76H310.03M217.451 1058.76V1155.53M310.03 1058.76H402.609M310.03 1058.76V1155.53M402.609 1058.76H495.188M402.609 1058.76V1155.53M495.188 1058.76H587.767M495.188 1058.76V1155.53M587.767 1058.76H680.346M587.767 1058.76V1155.53M680.346 1058.76H772.925M680.346 1058.76V1155.53M772.925 1058.76H865.504M772.925 1058.76V1155.53M865.504 1058.76H958.084M865.504 1058.76V1155.53M958.084 1058.76H1050.66M958.084 1058.76V1155.53M1050.66 1058.76H1143.24M1050.66 1058.76V1155.53M1143.24 1058.76H1235.82M1143.24 1058.76V1155.53M1235.82 1058.76H1328.4M1235.82 1058.76V1155.53M1328.4 1058.76V1155.53M32.2931 1155.53H-60.2859M32.2931 1155.53H124.872M32.2931 1155.53V1252.29M-60.2859 1155.53V1252.29M124.872 1155.53H217.451M124.872 1155.53V1252.29M217.451 1155.53H310.03M217.451 1155.53V1252.29M310.03 1155.53H402.609M310.03 1155.53V1252.29M402.609 1155.53H495.188M402.609 1155.53V1252.29M495.188 1155.53H587.767M495.188 1155.53V1252.29M587.767 1155.53H680.346M587.767 1155.53V1252.29M680.346 1155.53H772.925M680.346 1155.53V1252.29M772.925 1155.53H865.504M772.925 1155.53V1252.29M865.504 1155.53H958.084M865.504 1155.53V1252.29M958.084 1155.53H1050.66M958.084 1155.53V1252.29M1050.66 1155.53H1143.24M1050.66 1155.53V1252.29M1143.24 1155.53H1235.82M1143.24 1155.53V1252.29M1235.82 1155.53H1328.4M1235.82 1155.53V1252.29M1328.4 1155.53V1252.29M32.2931 1252.29H-60.2859M32.2931 1252.29H124.872M32.2931 1252.29V1349.06M-60.2859 1252.29V1349.06M124.872 1252.29H217.451M124.872 1252.29V1349.06M217.451 1252.29H310.03M217.451 1252.29V1349.06M310.03 1252.29H402.609M310.03 1252.29V1349.06M402.609 1252.29H495.188M402.609 1252.29V1349.06M495.188 1252.29H587.767M495.188 1252.29V1349.06M587.767 1252.29H680.346M587.767 1252.29V1349.06M680.346 1252.29H772.925M680.346 1252.29V1349.06M772.925 1252.29H865.504M772.925 1252.29V1349.06M865.504 1252.29H958.084M865.504 1252.29V1349.06M958.084 1252.29H1050.66M958.084 1252.29V1349.06M1050.66 1252.29H1143.24M1050.66 1252.29V1349.06M1143.24 1252.29H1235.82M1143.24 1252.29V1349.06M1235.82 1252.29H1328.4M1235.82 1252.29V1349.06M1328.4 1252.29V1349.06M32.2931 1349.06H-60.2859M32.2931 1349.06H124.872M32.2931 1349.06V1445.82M-60.2859 1349.06V1445.82M124.872 1349.06H217.451M124.872 1349.06V1445.82M217.451 1349.06H310.03M217.451 1349.06V1445.82M310.03 1349.06H402.609M310.03 1349.06V1445.82M402.609 1349.06H495.188M402.609 1349.06V1445.82M495.188 1349.06H587.767M495.188 1349.06V1445.82M587.767 1349.06H680.346M587.767 1349.06V1445.82M680.346 1349.06H772.925M680.346 1349.06V1445.82M772.925 1349.06H865.504M772.925 1349.06V1445.82M865.504 1349.06H958.084M865.504 1349.06V1445.82M958.084 1349.06H1050.66M958.084 1349.06V1445.82M1050.66 1349.06H1143.24M1050.66 1349.06V1445.82M1143.24 1349.06H1235.82M1143.24 1349.06V1445.82M1235.82 1349.06H1328.4M1235.82 1349.06V1445.82M1328.4 1349.06V1445.82M32.2931 1445.82H-60.2859M32.2931 1445.82H124.872M32.2931 1445.82V1542.58M-60.2859 1445.82V1542.58H32.2931M124.872 1445.82H217.451M124.872 1445.82V1542.58M217.451 1445.82H310.03M217.451 1445.82V1542.58M310.03 1445.82H402.609M310.03 1445.82V1542.58M402.609 1445.82H495.188M402.609 1445.82V1542.58M495.188 1445.82H587.767M495.188 1445.82V1542.58M587.767 1445.82H680.346M587.767 1445.82V1542.58M680.346 1445.82H772.925M680.346 1445.82V1542.58M772.925 1445.82H865.504M772.925 1445.82V1542.58M865.504 1445.82H958.084M865.504 1445.82V1542.58M958.084 1445.82H1050.66M958.084 1445.82V1542.58M1050.66 1445.82H1143.24M1050.66 1445.82V1542.58M1143.24 1445.82H1235.82M1143.24 1445.82V1542.58M1235.82 1445.82H1328.4M1235.82 1445.82V1542.58M1328.4 1445.82V1542.58H1235.82M32.2931 1542.58H124.872M124.872 1542.58H217.451M217.451 1542.58H310.03M310.03 1542.58H402.609M402.609 1542.58H495.188M495.188 1542.58H587.767M587.767 1542.58H680.346M680.346 1542.58H772.925M772.925 1542.58H865.504M865.504 1542.58H958.084M958.084 1542.58H1050.66M1050.66 1542.58H1143.24M1143.24 1542.58H1235.82" stroke="url(#paint5_radial_1_4206)" stroke-opacity="0.2"/>
</g>
<defs>
<radialGradient id="paint0_radial_1_4206" cx="0" cy="0" r="1" gradientUnits="userSpaceOnUse" gradientTransform="translate(265.361 867.534) rotate(90.677) scale(68.5865 119.024)">
<stop stop-color="white" stop-opacity="0.8"/>
<stop offset="1" stop-color="#05041F"/>
</radialGradient>
<radialGradient id="paint1_radial_1_4206" cx="0" cy="0" r="1" gradientUnits="userSpaceOnUse" gradientTransform="translate(634.686 576.266) rotate(90) scale(72.8153 126.361)">
<stop stop-color="white" stop-opacity="0.8"/>
<stop offset="1" stop-color="#05041F"/>
</radialGradient>
<radialGradient id="paint2_radial_1_4206" cx="0" cy="0" r="1" gradientUnits="userSpaceOnUse" gradientTransform="translate(541.591 1153.72) rotate(91.981) scale(70.317 122.039)">
<stop stop-color="white" stop-opacity="0.8"/>
<stop offset="1" stop-color="#05041F"/>
</radialGradient>
<radialGradient id="paint3_radial_1_4206" cx="0" cy="0" r="1" gradientUnits="userSpaceOnUse" gradientTransform="translate(914.225 963.208) rotate(90.6768) scale(68.5866 119.024)">
<stop stop-color="white" stop-opacity="0.8"/>
<stop offset="1" stop-color="#05041F"/>
</radialGradient>
<radialGradient id="paint4_radial_1_4206" cx="0" cy="0" r="1" gradientUnits="userSpaceOnUse" gradientTransform="translate(634.751 865.839) rotate(90) scale(74.5086 129.299)">
<stop stop-color="white" stop-opacity="0.8"/>
<stop offset="1" stop-color="#05041F"/>
</radialGradient>
<radialGradient id="paint5_radial_1_4206" cx="0" cy="0" r="1" gradientUnits="userSpaceOnUse" gradientTransform="translate(634.832 817.457) rotate(90) scale(513.94 491.711)">
<stop stop-color="white"/>
<stop offset="1" stop-color="white" stop-opacity="0"/>
</radialGradient>
</defs>
</svg>
