<svg width="212" height="40" viewBox="0 0 212 40" fill="none" xmlns="http://www.w3.org/2000/svg">
<path d="M65.8897 30.6821C69.0056 30.6821 70.5779 29.0731 71.2631 27.9774H71.5718C71.7074 29.1411 72.5297 30.2368 74.1381 30.2368H77.1833V26.8122H76.3971C75.8489 26.8122 75.5749 26.5043 75.5749 26.0258V12.2957H71.5358V14.4872H71.2285C70.4423 13.3914 68.7993 11.8504 65.7873 11.8504C60.9967 11.8504 57.4365 15.8215 57.4365 21.2655C57.4365 26.7096 61.0645 30.6821 65.8897 30.6821ZM66.6081 26.779C63.7678 26.779 61.5448 24.6901 61.5448 21.3002C61.5448 17.9783 63.7 15.7203 66.5749 15.7203C69.3128 15.7203 71.605 17.7397 71.605 21.3002C71.605 24.3475 69.6533 26.779 66.6081 26.779ZM79.5692 37.1944H83.6069V27.9774H83.9141C84.6671 29.0731 86.2756 30.6821 89.4592 30.6821C94.2499 30.6821 97.7408 26.6417 97.7408 21.2655C97.7408 15.8561 94.0104 11.8504 89.1851 11.8504C86.1053 11.8504 84.5979 13.5273 83.8795 14.4525H83.5723V12.2957H79.5678L79.5692 37.1944ZM88.6038 26.8816C85.8313 26.8816 83.5376 24.8275 83.5376 21.2655C83.5376 18.2182 85.4894 15.6509 88.5346 15.6509C91.3763 15.6509 93.5993 17.8771 93.5993 21.2655C93.5993 24.5875 91.4441 26.8816 88.6038 26.8816ZM99.8252 37.1944H103.864V27.9774H104.172C104.925 29.0731 106.533 30.6821 109.715 30.6821C114.506 30.6821 117.664 26.6417 117.664 21.2655C117.664 15.8561 114.266 11.8504 109.441 11.8504C106.361 11.8504 104.855 13.5273 104.137 14.4525H103.828V12.2957H99.8252V37.1944ZM108.86 26.8816C106.087 26.8816 103.795 24.8275 103.795 21.2655C103.795 18.2182 105.745 15.6509 108.791 15.6509C111.632 15.6509 113.857 17.8771 113.857 21.2655C113.857 24.5875 111.7 26.8816 108.86 26.8816ZM123.004 30.6532H128.718L131.969 16.5804H132.175L135.425 30.6532H141.108L145.656 12.712H141.586L138.335 26.8195H138.026L134.776 12.7106H129.403L126.117 26.8195H125.81L122.593 12.7106H118.28L123.004 30.6532ZM147.703 30.6532H151.742V21.7859C151.742 18.396 153.314 16.3072 156.258 16.3072H158.037V12.2668H156.703C154.409 12.2668 152.664 13.8424 151.98 15.3487H151.706V12.712H147.703V30.6532ZM178.078 30.6532H181.227V27.058H178.113C176.881 27.058 176.367 26.5101 176.367 25.2438V16.2725H181.432V12.712H176.367V7.67847H172.535V12.712H169.181V16.2725H172.295V25.2785C172.295 29.0789 174.587 30.6532 178.078 30.6532ZM192.061 30.6821C195.791 30.6821 199.077 28.8317 200.24 25.1021L196.544 24.2102C195.893 26.1964 194.012 27.2242 192.027 27.2242C189.083 27.2242 187.133 25.3059 187.098 22.2933H200.686V21.1629C200.686 15.8215 197.366 11.8504 191.89 11.8504C187.064 11.8504 182.924 15.6509 182.924 21.3002C182.924 26.779 186.585 30.6821 192.061 30.6821ZM187.133 19.3487C187.372 17.1919 189.323 15.3762 191.89 15.3762C194.354 15.3762 196.374 16.9172 196.579 19.3487H187.133Z" fill="#EDEDF0"/>
<path fill-rule="evenodd" clip-rule="evenodd" d="M167.384 30.6528H163.345V16.2721H160.198V12.7117H167.384V30.6528Z" fill="#EDEDF0"/>
<path d="M165.066 10.2208C166.538 10.2208 167.633 9.12503 167.633 7.68667C167.633 6.28446 166.538 5.18726 165.066 5.18726C163.594 5.18726 162.499 6.28301 162.499 7.68812C162.499 9.12503 163.594 10.2208 165.066 10.2208Z" fill="#EDEDF0"/>
<path d="M45.5297 26.2541V34.173H25.78C20.0258 34.173 15.0015 30.9884 12.314 26.2541C11.1249 24.1557 10.426 21.8145 10.27 19.4064L10.27 17.2669C10.3401 16.168 10.5243 15.0794 10.8196 14.0187C12.666 7.36898 18.6655 2.50024 25.7786 2.50024C32.896 2.50024 38.8941 7.37187 40.7391 14.0172H32.2945C30.9097 11.8503 28.5093 10.4177 25.78 10.4177C23.0508 10.4177 20.6518 11.8503 19.2656 14.0172C18.8371 14.6845 18.5113 15.4125 18.2991 16.1769C18.1046 16.8802 18.0066 17.6068 18.0077 18.3366C18.0045 19.4117 18.2189 20.4762 18.6379 21.4658C19.0569 22.4555 19.6719 23.3497 20.4456 24.0944C21.877 25.4803 23.7897 26.2547 25.78 26.2541H45.5297Z" fill="#FD366E"/>
<path d="M45.5297 16.1755V24.0945H31.113C31.887 23.3499 32.5022 22.4557 32.9215 21.4661C33.3407 20.4764 33.5554 19.4118 33.5524 18.3367C33.5531 17.6068 33.4545 16.8802 33.2595 16.177L45.5297 16.1755Z" fill="#FD366E"/>
</svg>
