<svg width="197" height="38" viewBox="0 0 197 38" fill="none" xmlns="http://www.w3.org/2000/svg">
<path d="M66.0245 12.2998C66.9559 12.3017 67.8745 12.5171 68.7095 12.9296C69.5445 13.3421 70.2738 13.9406 70.8411 14.6791C70.8612 14.7059 70.8866 14.7283 70.9157 14.7448C70.9448 14.7614 70.9769 14.7719 71.0102 14.7755C71.0435 14.7792 71.0772 14.776 71.1092 14.7661C71.1412 14.7563 71.1708 14.74 71.1963 14.7182L73.2245 13.1024C73.2505 13.0817 73.2721 13.0561 73.2881 13.027C73.3041 12.9979 73.3142 12.966 73.3178 12.933C73.3214 12.9 73.3185 12.8666 73.3092 12.8347C73.2999 12.8029 73.2844 12.7731 73.2636 12.7473C72.4003 11.6273 71.2913 10.7204 70.022 10.0967C68.7527 9.47301 67.3571 9.14907 65.9428 9.1499C60.6467 9.1499 56.3522 13.7132 56.3522 19.3241C56.3522 24.9351 60.6609 29.4984 65.9428 29.4984C67.3569 29.5031 68.753 29.1812 70.0222 28.5579C71.2915 27.9345 72.3995 27.0264 73.26 25.9045C73.2816 25.8789 73.2977 25.849 73.3073 25.8169C73.3168 25.7848 73.3197 25.751 73.3157 25.7177C73.3117 25.6844 73.3009 25.6523 73.284 25.6234C73.2671 25.5944 73.2444 25.5693 73.2174 25.5494L71.1927 23.9514C71.1669 23.9306 71.1372 23.915 71.1053 23.9057C71.0734 23.8964 71.04 23.8935 71.007 23.8971C70.974 23.9008 70.9421 23.9109 70.913 23.9269C70.8839 23.9429 70.8583 23.9645 70.8375 23.9904C70.2673 24.7241 69.5377 25.3186 68.7039 25.729C67.8701 26.1393 66.9539 26.3548 66.0245 26.3591C62.405 26.3591 59.574 23.2695 59.574 19.3312C59.574 15.3929 62.405 12.2998 66.0245 12.2998Z" fill="white"/>
<path d="M75.8776 8.5708H78.4209C78.4878 8.5708 78.5519 8.59737 78.5992 8.64465C78.6465 8.69193 78.6731 8.75607 78.6731 8.82294V28.9867C78.6731 29.0527 78.6469 29.1159 78.6003 29.1625C78.5536 29.2091 78.4904 29.2353 78.4245 29.2353H75.8812C75.8143 29.2353 75.7502 29.2088 75.7029 29.1615C75.6556 29.1142 75.629 29.0501 75.629 28.9832V8.82294C75.6285 8.79 75.6346 8.75729 75.6469 8.72672C75.6592 8.69615 75.6774 8.66832 75.7005 8.64486C75.7237 8.6214 75.7513 8.60277 75.7817 8.59006C75.8121 8.57734 75.8447 8.5708 75.8776 8.5708Z" fill="white"/>
<path d="M87.3399 15.5454C83.969 15.5454 80.559 17.9318 80.559 22.4951C80.559 26.5045 83.4753 29.5301 87.3399 29.5301C91.2045 29.5301 94.1492 26.5045 94.1492 22.4951C94.1492 18.4858 91.2223 15.5454 87.3399 15.5454ZM91.0802 22.4951C91.0802 24.8105 89.4711 26.5577 87.3399 26.5577C85.2087 26.5577 83.6316 24.8105 83.6316 22.4951C83.6316 20.1797 85.2264 18.5178 87.3399 18.5178C89.4534 18.5178 91.0802 20.2259 91.0802 22.4951Z" fill="white"/>
<path d="M107.857 15.8365H105.314C105.281 15.836 105.248 15.8421 105.217 15.8543C105.187 15.8666 105.159 15.8849 105.135 15.908C105.112 15.9311 105.093 15.9587 105.081 15.9891C105.068 16.0195 105.061 16.0521 105.061 16.085V22.8323C105.061 25.4673 103.243 26.4013 101.683 26.4013C100.305 26.4013 98.9162 25.3608 98.9162 23.0348V16.085C98.9162 16.0521 98.9097 16.0195 98.897 15.9891C98.8843 15.9587 98.8656 15.9311 98.8422 15.908C98.8187 15.8849 98.7909 15.8666 98.7603 15.8543C98.7297 15.8421 98.697 15.836 98.664 15.8365H96.1208C96.0548 15.8365 95.9916 15.8626 95.945 15.9093C95.8983 15.9559 95.8721 16.0191 95.8721 16.085V23.365C95.8721 27.3601 97.6801 29.5583 100.966 29.5583C102.159 29.5583 104.092 28.873 104.816 27.3601L105.061 27.4099V28.9866C105.061 29.0535 105.088 29.1176 105.135 29.1649C105.182 29.2122 105.247 29.2387 105.314 29.2387H107.857C107.924 29.2387 107.988 29.2122 108.035 29.1649C108.082 29.1176 108.109 29.0535 108.109 28.9866V16.085C108.109 16.0521 108.102 16.0195 108.09 15.9891C108.077 15.9587 108.058 15.9311 108.035 15.908C108.011 15.8849 107.984 15.8666 107.953 15.8543C107.922 15.8421 107.89 15.836 107.857 15.8365Z" fill="white"/>
<path d="M123.475 8.5708H120.929C120.896 8.5708 120.863 8.57734 120.833 8.59006C120.802 8.60277 120.775 8.6214 120.751 8.64486C120.728 8.66832 120.71 8.69615 120.698 8.72672C120.686 8.75729 120.679 8.79 120.68 8.82294V17.8359L120.524 17.5873C119.749 16.3409 118.083 15.5347 116.279 15.5347C113.167 15.5347 110.02 17.9318 110.02 22.5129C110.02 26.508 112.723 29.5194 116.304 29.5194C117.668 29.5194 119.589 28.9725 120.524 27.4384L120.68 27.1827V28.9867C120.679 29.0197 120.686 29.0524 120.698 29.083C120.71 29.1135 120.728 29.1414 120.751 29.1648C120.775 29.1883 120.802 29.2069 120.833 29.2196C120.863 29.2323 120.896 29.2389 120.929 29.2389H123.475C123.508 29.2389 123.541 29.2323 123.571 29.2196C123.602 29.2069 123.629 29.1883 123.652 29.1648C123.676 29.1414 123.694 29.1135 123.706 29.083C123.718 29.0524 123.725 29.0197 123.724 28.9867V8.82294C123.725 8.79 123.718 8.75729 123.706 8.72672C123.694 8.69615 123.676 8.66832 123.652 8.64486C123.629 8.6214 123.602 8.60277 123.571 8.59006C123.541 8.57734 123.508 8.5708 123.475 8.5708ZM120.634 22.4951C120.651 23.0114 120.565 23.5259 120.382 24.0089C120.199 24.4918 119.922 24.9337 119.567 25.3089C119.211 25.6841 118.785 25.9851 118.313 26.1946C117.841 26.4041 117.332 26.5178 116.815 26.5293C114.734 26.5293 113.103 24.7537 113.103 22.4951C113.103 20.2365 114.734 18.5178 116.815 18.5178C117.847 18.5438 118.826 18.9767 119.539 19.7218C120.253 20.4669 120.642 21.4639 120.623 22.4951H120.634Z" fill="white"/>
<path d="M127.286 15.8364H129.83C129.896 15.8364 129.959 15.8626 130.006 15.9092C130.052 15.9559 130.078 16.0191 130.078 16.085V28.9866C130.078 29.0525 130.052 29.1157 130.006 29.1623C129.959 29.209 129.896 29.2352 129.83 29.2352H127.286C127.22 29.2352 127.155 29.2086 127.108 29.1613C127.061 29.114 127.034 29.0499 127.034 28.983V16.085C127.035 16.0188 127.062 15.9555 127.109 15.909C127.157 15.8625 127.22 15.8364 127.286 15.8364Z" fill="white"/>
<path d="M128.569 8.97956C128.305 8.97388 128.044 9.02086 127.799 9.11772C127.554 9.21458 127.33 9.35938 127.142 9.54362C126.954 9.72787 126.804 9.94785 126.702 10.1907C126.6 10.4335 126.548 10.6942 126.548 10.9576C126.553 11.4882 126.769 11.9948 127.148 12.3664C127.527 12.7379 128.038 12.9439 128.569 12.9392C128.83 12.9425 129.09 12.8936 129.333 12.7953C129.575 12.697 129.796 12.5513 129.981 12.3668C130.167 12.1823 130.314 11.9626 130.413 11.7206C130.513 11.4787 130.563 11.2192 130.561 10.9576C130.566 10.6954 130.517 10.4351 130.418 10.1922C130.32 9.94926 130.173 9.72882 129.987 9.54408C129.801 9.35934 129.579 9.2141 129.335 9.11709C129.092 9.02008 128.831 8.9733 128.569 8.97956Z" fill="white"/>
<path d="M140.554 15.5454C139.438 15.5454 137.456 16.1456 136.7 17.7436L136.455 17.6939V16.0852C136.455 16.0522 136.448 16.0196 136.435 15.9892C136.423 15.9588 136.404 15.9313 136.381 15.9082C136.357 15.885 136.329 15.8668 136.299 15.8545C136.268 15.8422 136.235 15.8361 136.203 15.8366H133.659C133.593 15.8366 133.53 15.8628 133.483 15.9094C133.437 15.956 133.411 16.0193 133.411 16.0852V28.9868C133.41 29.0197 133.416 29.0524 133.428 29.083C133.441 29.1135 133.459 29.1414 133.482 29.1648C133.505 29.1883 133.533 29.2069 133.563 29.2196C133.594 29.2324 133.626 29.2389 133.659 29.2389H136.203C136.269 29.2389 136.334 29.2123 136.381 29.165C136.428 29.1178 136.455 29.0536 136.455 28.9868V22.2395C136.455 19.6258 138.273 18.6882 139.833 18.6882C141.211 18.6882 142.6 19.7216 142.6 22.0264V28.9868C142.6 29.0536 142.626 29.1178 142.674 29.165C142.721 29.2123 142.785 29.2389 142.852 29.2389H145.402C145.469 29.2389 145.533 29.2123 145.581 29.165C145.628 29.1178 145.655 29.0536 145.655 28.9868V21.7103C145.647 17.7365 143.836 15.5454 140.554 15.5454Z" fill="white"/>
<path d="M160.846 15.8371H158.303C158.27 15.8366 158.238 15.8427 158.207 15.8549C158.176 15.8672 158.149 15.8855 158.125 15.9086C158.102 15.9317 158.083 15.9593 158.07 15.9897C158.058 16.0201 158.051 16.0527 158.051 16.0856V17.8612L157.898 17.6127C157.12 16.3662 155.454 15.5601 153.636 15.5601C150.528 15.5601 147.377 17.9571 147.377 22.5382C147.377 26.5333 150.08 29.5447 153.664 29.5447C155.025 29.5447 156.946 28.9979 157.884 27.4637L158.037 27.208V28.9872C158.037 29.0541 158.063 29.1182 158.111 29.1655C158.158 29.2128 158.222 29.2393 158.289 29.2393H160.832C160.865 29.2393 160.898 29.2328 160.928 29.2201C160.959 29.2074 160.986 29.1887 161.009 29.1653C161.032 29.1418 161.051 29.114 161.063 29.0834C161.075 29.0529 161.081 29.0201 161.081 28.9872V16.0856C161.081 16.0221 161.057 15.9609 161.013 15.9147C160.97 15.8685 160.91 15.8407 160.846 15.8371ZM158.005 22.4956C158.022 23.0127 157.936 23.5281 157.752 24.0117C157.568 24.4954 157.29 24.9378 156.934 25.3131C156.578 25.6884 156.15 25.9892 155.677 26.1981C155.203 26.407 154.693 26.5197 154.176 26.5298C152.094 26.5298 150.467 24.7542 150.467 22.4956C150.467 20.237 152.094 18.5182 154.176 18.5182C155.21 18.5406 156.192 18.9718 156.909 19.7173C157.625 20.4629 158.017 21.4619 157.998 22.4956H158.005Z" fill="white"/>
<path d="M172.451 15.8825C171.871 15.6475 171.251 15.5269 170.625 15.5273C168.934 15.5273 167.705 16.5394 167.073 18.4571L166.846 18.4251V16.0849C166.846 16.0519 166.839 16.0193 166.826 15.9889C166.814 15.9585 166.795 15.931 166.772 15.9078C166.748 15.8847 166.72 15.8665 166.69 15.8542C166.659 15.8419 166.627 15.8358 166.594 15.8363H164.05C164.017 15.8358 163.985 15.8419 163.954 15.8542C163.923 15.8665 163.896 15.8847 163.872 15.9078C163.849 15.931 163.83 15.9585 163.817 15.9889C163.805 16.0193 163.798 16.0519 163.798 16.0849V28.9864C163.798 29.0533 163.825 29.1175 163.872 29.1647C163.919 29.212 163.983 29.2386 164.05 29.2386H166.622C166.655 29.2386 166.688 29.232 166.718 29.2193C166.748 29.2066 166.776 29.188 166.799 29.1645C166.822 29.1411 166.84 29.1132 166.853 29.0827C166.865 29.0521 166.871 29.0194 166.871 28.9864V24.5829C166.871 19.3271 168.97 18.5459 170.224 18.5459C170.753 18.5472 171.276 18.656 171.762 18.8655C171.796 18.8813 171.833 18.8896 171.87 18.8896C171.908 18.8896 171.945 18.8813 171.978 18.8655C172.011 18.8483 172.039 18.8241 172.062 18.7946C172.084 18.7652 172.099 18.7311 172.106 18.695L172.611 16.1701C172.623 16.111 172.614 16.0494 172.584 15.9966C172.555 15.9438 172.508 15.9033 172.451 15.8825Z" fill="white"/>
<path d="M186.564 15.9466C186.541 15.912 186.51 15.8838 186.473 15.8645C186.436 15.8453 186.395 15.8356 186.354 15.8365H183.615C183.565 15.837 183.516 15.8525 183.474 15.8809C183.432 15.9093 183.4 15.9495 183.381 15.9963L180.067 24.5831L176.721 15.9963C176.702 15.9495 176.67 15.9093 176.628 15.8809C176.586 15.8525 176.537 15.837 176.486 15.8365H173.694C173.654 15.8362 173.613 15.8462 173.577 15.8654C173.542 15.8846 173.511 15.9125 173.488 15.9466C173.465 15.9805 173.451 16.0197 173.446 16.0606C173.442 16.1015 173.448 16.1429 173.464 16.1809L178.436 28.39L175.691 35.5244C175.673 35.5631 175.666 35.6056 175.67 35.6479C175.673 35.6902 175.687 35.7309 175.71 35.7663C175.734 35.8017 175.766 35.8307 175.803 35.8505C175.841 35.8702 175.883 35.8802 175.925 35.8795H178.589C178.639 35.8798 178.688 35.8645 178.73 35.836C178.771 35.8074 178.803 35.7668 178.82 35.7197L186.585 16.188C186.603 16.1494 186.61 16.1068 186.606 16.0645C186.602 16.0221 186.588 15.9815 186.564 15.9466Z" fill="white"/>
<path d="M43.7815 11.4827C42.8625 8.60171 41.056 6.08492 38.6203 4.29205C36.1846 2.49919 33.2443 1.52202 30.2197 1.50023C27.6625 1.48557 25.1497 2.16779 22.9511 3.47358C20.7526 4.77937 18.9515 6.65938 17.7414 8.91162C15.5172 9.31011 13.4783 10.4079 11.9214 12.0451C10.3646 13.6823 9.37095 15.7736 9.08523 18.0145C8.7995 20.2554 9.23657 22.529 10.3328 24.5043C11.4291 26.4797 13.1273 28.0537 15.1803 28.9973L15.4467 29.118H15.4645V26.0995C14.0561 25.2352 12.9536 23.9519 12.3113 22.4296C11.6691 20.9073 11.5194 19.2223 11.8833 17.6107C12.2471 15.9991 13.1062 14.5417 14.3402 13.4427C15.5742 12.3438 17.1212 11.6584 18.7643 11.4827L19.5103 11.4046L19.8371 10.7334C20.7649 8.76746 22.2349 7.10721 24.0741 5.94782C25.9134 4.78842 28.0454 4.17807 30.2197 4.1885C32.8105 4.20677 35.3208 5.09052 37.3515 6.69919C39.3821 8.30787 40.8165 10.5491 41.4265 13.0665L41.6822 14.0822H42.7478C44.4657 14.1174 46.1017 14.8228 47.3063 16.0477C48.5109 17.2726 49.1887 18.9199 49.1948 20.6377C49.1948 23.1413 47.7491 25.1904 45.2876 26.2273V29.0896L45.4652 29.0328C49.4221 27.7366 51.8802 24.5192 51.8802 20.6377C51.8639 18.3912 51.0348 16.2265 49.5461 14.5436C48.0574 12.8607 46.0097 11.7734 43.7815 11.4827Z" fill="#3847BE"/>
<path d="M25.0122 28.7706L25.6019 29.3601C25.6178 29.3764 25.6286 29.3971 25.6329 29.4195C25.6373 29.442 25.635 29.4652 25.6263 29.4863C25.6176 29.5074 25.6029 29.5256 25.5841 29.5385C25.5652 29.5514 25.543 29.5585 25.5202 29.5589H20.867C20.3018 29.5589 19.7597 29.3345 19.36 28.9349C18.9603 28.5353 18.7358 27.9933 18.7358 27.4282V18.3939C18.7358 18.3628 18.7234 18.333 18.7014 18.3111C18.6794 18.2891 18.6496 18.2767 18.6185 18.2767H17.624C17.6008 18.277 17.5781 18.2703 17.5587 18.2577C17.5394 18.2451 17.5241 18.227 17.515 18.2057C17.5059 18.1844 17.5033 18.161 17.5075 18.1382C17.5117 18.1154 17.5226 18.0945 17.5387 18.0779L21.4886 14.1289C21.4995 14.1179 21.5125 14.1091 21.5268 14.1031C21.5412 14.0971 21.5565 14.094 21.5721 14.094C21.5876 14.094 21.603 14.0971 21.6173 14.1031C21.6316 14.1091 21.6446 14.1179 21.6555 14.1289L25.6019 18.0779C25.6178 18.0942 25.6286 18.1149 25.6329 18.1373C25.6373 18.1598 25.635 18.183 25.6263 18.2041C25.6176 18.2252 25.6029 18.2433 25.5841 18.2562C25.5652 18.2692 25.543 18.2763 25.5202 18.2767H24.5114C24.48 18.2767 24.4498 18.2889 24.4272 18.3108C24.4047 18.3327 24.3916 18.3625 24.3906 18.3939V27.272C24.3921 27.8339 24.6155 28.3725 25.0122 28.7706Z" fill="#3847BE"/>
<path d="M33.7396 28.77L34.3328 29.3595C34.3489 29.3761 34.3598 29.3971 34.364 29.4198C34.3682 29.4426 34.3656 29.466 34.3565 29.4873C34.3474 29.5086 34.3322 29.5267 34.3128 29.5393C34.2934 29.5519 34.2707 29.5586 34.2476 29.5583H29.605C29.0398 29.5583 28.4977 29.3338 28.098 28.9343C27.6983 28.5347 27.4738 27.9927 27.4738 27.4276V20.6767C27.4738 20.6453 27.4616 20.6151 27.4397 20.5926C27.4178 20.5701 27.388 20.5569 27.3566 20.556H26.3513C26.3285 20.5555 26.3063 20.5484 26.2874 20.5355C26.2686 20.5226 26.2539 20.5045 26.2452 20.4834C26.2366 20.4622 26.2343 20.439 26.2386 20.4166C26.2429 20.3942 26.2537 20.3735 26.2696 20.3571L30.216 16.4153C30.2269 16.4042 30.2399 16.3954 30.2542 16.3895C30.2685 16.3835 30.2839 16.3804 30.2994 16.3804C30.315 16.3804 30.3304 16.3835 30.3447 16.3895C30.359 16.3954 30.372 16.4042 30.3829 16.4153L34.3328 20.35C34.3489 20.3666 34.3598 20.3876 34.364 20.4104C34.3682 20.4331 34.3656 20.4566 34.3565 20.4779C34.3474 20.4991 34.3322 20.5172 34.3128 20.5299C34.2934 20.5425 34.2707 20.5491 34.2476 20.5489H33.2388C33.2074 20.5498 33.1776 20.563 33.1557 20.5855C33.1338 20.608 33.1215 20.6382 33.1216 20.6696V27.2713C33.122 27.8328 33.3442 28.3713 33.7396 28.77Z" fill="#3847BE"/>
<path d="M42.4707 28.77L43.0603 29.3595C43.0762 29.3759 43.087 29.3965 43.0914 29.419C43.0957 29.4414 43.0934 29.4646 43.0847 29.4857C43.076 29.5069 43.0613 29.525 43.0425 29.5379C43.0237 29.5508 43.0014 29.5579 42.9786 29.5584H38.3219C37.7566 29.5584 37.2145 29.3339 36.8148 28.9343C36.4152 28.5347 36.1906 27.9927 36.1906 27.4276V22.9425C36.1906 22.9114 36.1783 22.8816 36.1563 22.8596C36.1343 22.8376 36.1045 22.8253 36.0734 22.8253H35.0788C35.0552 22.8255 35.0321 22.8187 35.0125 22.8056C34.9929 22.7925 34.9777 22.7738 34.9689 22.7519C34.96 22.7301 34.958 22.7061 34.9631 22.683C34.9681 22.66 34.98 22.639 34.9971 22.6229L38.947 18.6775C38.9576 18.6665 38.9703 18.6578 38.9843 18.6518C38.9984 18.6459 39.0135 18.6428 39.0287 18.6428C39.044 18.6428 39.059 18.6459 39.0731 18.6518C39.0871 18.6578 39.0998 18.6665 39.1104 18.6775L43.0603 22.6229C43.0774 22.639 43.0893 22.66 43.0944 22.683C43.0994 22.7061 43.0974 22.7301 43.0886 22.7519C43.0797 22.7738 43.0645 22.7925 43.0449 22.8056C43.0253 22.8187 43.0022 22.8255 42.9786 22.8253H41.9663C41.9352 22.8253 41.9054 22.8376 41.8834 22.8596C41.8614 22.8816 41.849 22.9114 41.849 22.9425V27.2714C41.8505 27.8333 42.0739 28.372 42.4707 28.77Z" fill="#3847BE"/>
</svg>
