<svg width="174" height="40" viewBox="0 0 174 40" fill="none" xmlns="http://www.w3.org/2000/svg">
<path d="M53.268 16.7909C52.1645 16.0381 49.2658 15.7166 47.1586 16.2924C47.0455 14.1648 45.9622 12.3716 43.9822 10.8069L43.2495 10.3084L42.761 11.0565C41.8008 12.5337 41.3959 14.5026 41.5391 16.2924C41.6522 17.3952 42.0303 18.6344 42.761 19.5337C40.0182 21.1465 37.4894 20.7803 26.2919 20.7803H9.00383C8.95364 23.3433 9.35981 28.2728 12.4526 32.2859C12.7945 32.7294 13.1686 33.1581 13.5754 33.5711C16.0901 36.1233 19.8895 37.9952 25.5706 38C34.2381 38.0081 41.6636 33.2591 46.181 21.778C47.6672 21.8024 51.5911 22.0479 53.5115 18.2871C53.5584 18.224 54 17.2901 54 17.2901L53.268 16.7916V16.7909ZM20.2863 14.4476H15.425V19.375H20.2863V14.4476ZM26.5663 14.4476H21.7049V19.375H26.5663V14.4476ZM32.8469 14.4476H27.9855V19.375H32.8469V14.4476ZM39.1275 14.4476H34.2662V19.375H39.1275V14.4476ZM14.0057 14.4476H9.14435V19.375H14.0057V14.4476ZM20.2863 8.22415H15.425V13.1515H20.2863V8.22415ZM26.5663 8.22415H21.7049V13.1515H26.5663V8.22415ZM32.8469 8.22415H27.9855V13.1515H32.8469V8.22415ZM32.8469 2H27.9855V6.92737H32.8469V2Z" fill="#1D63ED"/>
<path d="M164.998 30.4384C164.998 31.723 164 32.7315 162.702 32.7315C161.405 32.7315 160.393 31.723 160.393 30.4384C160.393 29.1538 161.417 28.1731 162.702 28.1731C163.987 28.1731 164.998 29.1816 164.998 30.4384ZM160.967 30.4384C160.967 31.4469 161.705 32.2479 162.716 32.2479C163.728 32.2479 164.425 31.4469 164.425 30.4526C164.425 29.4584 163.7 28.6289 162.704 28.6289C161.707 28.6289 160.968 29.4441 160.968 30.4384H160.967ZM162.348 31.6267H161.829V29.3614C162.033 29.32 162.321 29.2922 162.689 29.2922C163.113 29.2922 163.303 29.3614 163.468 29.4584C163.591 29.5547 163.687 29.7344 163.687 29.9555C163.687 30.2044 163.495 30.3977 163.223 30.4805V30.5083C163.44 30.5903 163.564 30.7565 163.632 31.0603C163.7 31.4056 163.741 31.5439 163.797 31.6267H163.236C163.168 31.5439 163.126 31.3371 163.059 31.0739C163.018 30.8257 162.881 30.7151 162.594 30.7151H162.348V31.6273V31.6267ZM162.361 30.3421H162.606C162.894 30.3421 163.126 30.2458 163.126 30.0111C163.126 29.8036 162.976 29.6645 162.647 29.6645C162.511 29.6645 162.415 29.6788 162.361 29.6937V30.3421Z" fill="white"/>
<path d="M76.9482 7.51252C76.6268 7.19511 76.241 7.03369 75.7787 7.03369C75.3164 7.03369 74.9192 7.19511 74.6099 7.51252C74.2999 7.82994 74.1482 8.23688 74.1482 8.72182V16.8199C72.5581 15.4913 70.723 14.8212 68.6356 14.8212C66.2094 14.8212 64.1348 15.707 62.4157 17.4846C60.6967 19.2562 59.8433 21.3994 59.8433 23.9129C59.8433 26.4264 60.7028 28.5636 62.4157 30.3412C64.1348 32.1128 66.204 33.0046 68.6356 33.0046C71.0672 33.0046 73.1136 32.1189 74.8554 30.3412C76.5745 28.5873 77.4279 26.4448 77.4279 23.9129V8.72182C77.4279 8.23688 77.2702 7.82994 76.9482 7.51252ZM73.7155 26.1036V26.1158C73.429 26.8042 73.0371 27.4085 72.5406 27.9233C72.0441 28.4442 71.459 28.8511 70.7927 29.1563C70.1204 29.4615 69.4072 29.6114 68.6416 29.6114C67.8761 29.6114 67.1454 29.4615 66.4731 29.1563C65.8008 28.8511 65.2217 28.4442 64.7312 27.9294C64.2401 27.4146 63.8489 26.8103 63.5624 26.1219C63.2759 25.4274 63.1297 24.6915 63.1297 23.9129C63.1297 23.1343 63.2759 22.3984 63.5624 21.7039C63.8489 21.0094 64.2408 20.4112 64.7312 19.8964C65.2224 19.3816 65.8068 18.9747 66.4731 18.6695C67.1454 18.3643 67.8647 18.2144 68.6416 18.2144C69.4186 18.2144 70.1204 18.3643 70.7927 18.6695C71.4651 18.9747 72.0441 19.3816 72.5406 19.9025C73.0371 20.4234 73.429 21.0277 73.7155 21.71C74.002 22.3984 74.1482 23.1289 74.1482 23.9068C74.1482 24.6847 74.002 25.4213 73.7155 26.1036Z" fill="white"/>
<path d="M149.588 20.4237C149.161 19.346 148.511 18.3707 147.658 17.4964L147.646 17.4903C145.91 15.7188 143.834 14.8269 141.427 14.8269C139.019 14.8269 136.925 15.7127 135.206 17.4903C133.487 19.2619 132.634 21.4051 132.634 23.9186C132.634 26.4322 133.494 28.5693 135.206 30.3469C136.925 32.1185 138.995 33.0104 141.427 33.0104C143.635 33.0104 145.547 32.2745 147.173 30.802C147.487 30.467 147.646 30.06 147.646 29.5866C147.646 29.1132 147.495 28.6948 147.184 28.3773C146.875 28.0599 146.483 27.8985 146.015 27.8985C145.607 27.9107 145.244 28.0484 144.934 28.3238C144.443 28.7544 143.911 29.0841 143.333 29.2997C142.754 29.5154 142.122 29.6233 141.433 29.6233C140.825 29.6233 140.24 29.5276 139.685 29.3303C139.129 29.1329 138.61 28.863 138.148 28.5103C137.679 28.1569 137.277 27.7385 136.932 27.2413C136.587 26.7503 136.324 26.2056 136.149 25.6074H148.583C149.044 25.6074 149.43 25.446 149.752 25.1286C150.074 24.8112 150.232 24.4043 150.232 23.9193C150.232 22.6625 150.014 21.4953 149.589 20.4237H149.588ZM136.136 22.2312C136.306 21.6384 136.563 21.0938 136.908 20.5973C137.253 20.1063 137.662 19.6817 138.129 19.3283C138.603 18.975 139.117 18.7057 139.684 18.5084C140.25 18.311 140.829 18.2154 141.427 18.2154C142.024 18.2154 142.601 18.311 143.162 18.5084C143.723 18.7057 144.239 18.975 144.7 19.3283C145.168 19.6817 145.577 20.1002 145.921 20.5973C146.272 21.0884 146.536 21.633 146.717 22.2312H136.135H136.136Z" fill="white"/>
<path d="M164.868 15.9638C164.576 15.6708 164.207 15.4429 163.763 15.2754C163.319 15.1079 162.834 14.9939 162.302 14.9281C161.776 14.8624 161.278 14.8325 160.817 14.8325C159.77 14.8325 158.788 15.0061 157.865 15.3534C156.941 15.7007 156.088 16.1971 155.304 16.8435V16.5206C155.304 16.054 155.146 15.6586 154.824 15.3297C154.504 15.0007 154.123 14.8332 153.674 14.8332C153.224 14.8332 152.826 15.0007 152.505 15.3297C152.183 15.6586 152.025 16.0601 152.025 16.5206V31.3231C152.025 31.7897 152.183 32.1851 152.505 32.5141C152.826 32.843 153.211 33.0106 153.674 33.0106C154.136 33.0106 154.509 32.843 154.824 32.5141C155.146 32.1851 155.304 31.7836 155.304 31.3231V23.9188C155.304 23.1287 155.45 22.3867 155.737 21.6922C156.023 20.9977 156.415 20.3995 156.912 19.8847C157.41 19.3699 157.994 18.963 158.66 18.6693C159.332 18.3702 160.046 18.2203 160.812 18.2203C161.578 18.2203 162.302 18.358 162.963 18.6272C163.226 18.7473 163.454 18.807 163.653 18.807C163.881 18.807 164.097 18.7649 164.296 18.6754C164.494 18.5859 164.67 18.4658 164.816 18.3105C164.963 18.1552 165.079 17.9755 165.167 17.7659C165.255 17.5624 165.302 17.3406 165.302 17.1012C165.302 16.6346 165.155 16.2575 164.863 15.9638H164.869H164.868Z" fill="white"/>
<path d="M96.2271 20.4296C95.8004 19.358 95.163 18.3766 94.3041 17.4908C92.5683 15.7193 90.493 14.8274 88.0843 14.8274C85.6755 14.8274 83.5834 15.7132 81.8644 17.4908C80.1454 19.2624 79.2926 21.4056 79.2926 23.9191C79.2926 26.4327 80.1521 28.5698 81.8644 30.3474C83.5834 32.119 85.6527 33.0109 88.0843 33.0109C90.5158 33.0109 92.5623 32.1251 94.3041 30.3474C96.0231 28.5935 96.8766 26.451 96.8766 23.9191C96.8645 22.6624 96.6485 21.5012 96.2278 20.4296H96.2271ZM93.1641 26.1037V26.1159C92.8776 26.8043 92.4858 27.4086 91.9893 27.9234C91.4928 28.4443 90.9077 28.8512 90.2414 29.1565C89.5752 29.4617 88.8559 29.6115 88.0903 29.6115C87.3247 29.6115 86.5941 29.4617 85.9217 29.1565C85.2494 28.8512 84.6704 28.4443 84.1799 27.9295C83.6888 27.4147 83.2976 26.8104 83.0111 26.122C82.7246 25.4275 82.5783 24.6916 82.5783 23.913C82.5783 23.1344 82.7246 22.3985 83.0111 21.704C83.2976 21.0095 83.6894 20.4113 84.1799 19.8965C84.6711 19.3817 85.2555 18.9748 85.9217 18.6696C86.5941 18.3644 87.3133 18.2145 88.0903 18.2145C88.8673 18.2145 89.5691 18.3644 90.2414 18.6696C90.9137 18.9748 91.4928 19.3817 91.9893 19.9026C92.4858 20.4235 92.8776 21.0278 93.1641 21.7101C93.4506 22.3985 93.5969 23.129 93.5969 23.9069C93.5969 24.6849 93.4506 25.4214 93.1641 26.1037Z" fill="white"/>
<path d="M131.394 16.5148C131.394 16.2876 131.347 16.0719 131.26 15.8684C131.172 15.665 131.055 15.4798 130.909 15.3238C130.763 15.1685 130.588 15.0423 130.389 14.9589C130.191 14.8755 129.975 14.8273 129.746 14.8273C129.419 14.8273 129.126 14.9114 128.869 15.0851L119.481 21.4001V8.73408C119.481 8.25525 119.324 7.85441 119.002 7.52479C118.681 7.19584 118.301 7.02832 117.851 7.02832C117.401 7.02832 117.003 7.19584 116.681 7.52479C116.36 7.85373 116.202 8.25525 116.202 8.73408V31.2996C116.202 31.7662 116.36 32.1678 116.681 32.5028C117.003 32.8378 117.389 33.0054 117.851 33.0054C118.313 33.0054 118.687 32.8378 119.002 32.5028C119.324 32.1678 119.481 31.7662 119.481 31.2996V25.4397L121.399 24.1409L128.653 32.5625C128.946 32.8555 129.314 32.9993 129.752 32.9993C129.981 32.9993 130.197 32.9572 130.395 32.8677C130.594 32.7836 130.77 32.6581 130.915 32.5028C131.061 32.3475 131.178 32.1678 131.266 31.9582C131.354 31.7547 131.4 31.5329 131.4 31.3118C131.4 30.8689 131.249 30.4735 130.944 30.1269L124.192 22.2682L130.768 17.8509C131.189 17.5579 131.394 17.1089 131.394 16.5039V16.5161L131.394 16.5148Z" fill="white"/>
<path d="M103.599 19.8848C104.101 19.37 104.686 18.9631 105.359 18.6694C106.031 18.3703 106.744 18.2204 107.51 18.2204C108.2 18.2204 108.837 18.3405 109.427 18.5792C110.012 18.8186 110.573 19.172 111.105 19.6325C111.42 19.8896 111.777 20.0211 112.174 20.0211C112.648 20.0211 113.034 19.8597 113.344 19.5362C113.654 19.2127 113.805 18.8058 113.805 18.3208C113.805 17.8359 113.618 17.3869 113.239 17.0403C111.625 15.5679 109.714 14.8313 107.51 14.8313C105.084 14.8313 103.009 15.7171 101.29 17.4947C99.5709 19.2663 98.7181 21.4095 98.7181 23.923C98.7181 26.4366 99.5776 28.5737 101.29 30.3513C103.009 32.1229 105.078 33.0148 107.51 33.0148C109.708 33.0148 111.619 32.2789 113.239 30.8058C113.583 30.447 113.759 30.0339 113.759 29.5551C113.759 29.0763 113.607 28.6632 113.298 28.3458C112.988 28.0284 112.596 27.867 112.129 27.867C111.732 27.8792 111.386 27.9985 111.094 28.2257C110.568 28.6924 110.019 29.0396 109.428 29.2729C108.844 29.5063 108.206 29.6202 107.51 29.6202C106.745 29.6202 106.032 29.4703 105.359 29.1712C104.687 28.8721 104.103 28.4652 103.599 27.9565C103.097 27.4478 102.699 26.8374 102.412 26.149C102.126 25.4545 101.98 24.7125 101.98 23.9224C101.98 23.1322 102.126 22.3902 102.412 21.6957C102.699 21.0012 103.096 20.403 103.599 19.8882V19.8821L103.599 19.8848Z" fill="white"/>
</svg>
