<svg width="174" height="36" viewBox="0 0 174 36" fill="none" xmlns="http://www.w3.org/2000/svg">
<g clip-path="url(#clip0_1_4370)">
<path fill-rule="evenodd" clip-rule="evenodd" d="M72.8503 21.7137C73.2146 20.7863 73.3975 19.7102 73.3975 18.4869C73.3975 17.2631 73.2117 16.1872 72.8395 15.2595C72.4678 14.3313 71.9578 13.5509 71.3107 12.9185C70.6633 12.2861 69.9057 11.812 69.0381 11.4957C68.1701 11.1791 67.2473 11.0208 66.2697 11.0208C65.3191 11.0208 64.4131 11.1791 63.5527 11.4957C62.6915 11.812 61.9337 12.2861 61.28 12.9185C60.6256 13.5509 60.1053 14.3313 59.7199 15.2595C59.3342 16.1872 59.1412 17.2631 59.1412 18.4869C59.1412 19.7102 59.3275 20.7863 59.6994 21.7137C60.0714 22.642 60.5805 23.4189 61.2283 24.044C61.8753 24.6701 62.6332 25.1407 63.5011 25.4567C64.3689 25.7733 65.2914 25.9314 66.2697 25.9314C67.2747 25.9314 68.2151 25.7733 69.0896 25.4567C69.9641 25.1407 70.7185 24.6701 71.352 24.044C71.9852 23.4189 72.4848 22.642 72.8503 21.7137ZM62.726 20.3838C62.5538 19.8201 62.4679 19.1876 62.4679 18.4869C62.4679 17.7994 62.5538 17.1705 62.726 16.5995C62.8982 16.0291 63.1462 15.5412 63.4701 15.1358C63.7932 14.73 64.1895 14.4137 64.6582 14.1867C65.1261 13.9601 65.6632 13.8467 66.2697 13.8467C66.8616 13.8467 67.3955 13.9566 67.871 14.1767C68.3457 14.3961 68.7456 14.7093 69.0688 15.1147C69.3924 15.5208 69.6408 16.0083 69.813 16.5787C69.9852 17.1495 70.0713 17.7853 70.0713 18.4869C70.0713 19.1876 69.9852 19.8201 69.813 20.3838C69.6408 20.9478 69.3924 21.4323 69.0688 21.8377C68.7456 22.2437 68.3457 22.556 67.871 22.7758C67.3955 22.9964 66.8616 23.1066 66.2697 23.1066C65.6632 23.1066 65.1261 22.9964 64.6582 22.7758C64.1895 22.556 63.7932 22.2437 63.4701 21.8377C63.1462 21.4323 62.8982 20.9478 62.726 20.3838Z" fill="white"/>
<path d="M81.5021 23.1887C81.9566 23.1887 82.3318 23.1513 82.628 23.0751C82.9241 22.9998 83.1619 22.8969 83.3408 22.7655C83.5195 22.6354 83.6438 22.4808 83.7129 22.3021C83.7818 22.1236 83.8162 21.9239 83.8162 21.7039C83.8162 21.2368 83.5955 20.8478 83.1549 20.5389C82.7141 20.2292 81.9566 19.8962 80.8824 19.538C80.4139 19.3736 79.9455 19.1841 79.4772 18.9713C79.0089 18.7585 78.5888 18.4903 78.217 18.167C77.8455 17.8441 77.5422 17.4522 77.3081 16.9912C77.0738 16.5309 76.9568 15.9709 76.9568 15.3108C76.9568 14.6507 77.0807 14.0562 77.3286 13.527C77.5768 12.9975 77.9279 12.5477 78.3826 12.176C78.837 11.8045 79.3876 11.5199 80.035 11.3201C80.6826 11.1211 81.4123 11.0208 82.2253 11.0208C83.1893 11.0208 84.0229 11.1246 84.7255 11.3305C85.4275 11.5366 86.0061 11.7639 86.4606 12.0113L85.5312 14.5478C85.1314 14.3417 84.687 14.1593 84.1985 14.001C83.7094 13.8433 83.1206 13.7637 82.4321 13.7637C81.6604 13.7637 81.106 13.871 80.7686 14.0838C80.4312 14.2969 80.2622 14.6236 80.2622 15.0631C80.2622 15.3247 80.3246 15.545 80.4485 15.7232C80.5722 15.902 80.7481 16.0634 80.9751 16.208C81.2025 16.3521 81.4642 16.4831 81.7607 16.5995C82.0562 16.7166 82.3836 16.8366 82.7421 16.9602C83.4855 17.2357 84.1329 17.5071 84.6842 17.7752C85.2348 18.0434 85.693 18.3563 86.0582 18.7135C86.4227 19.0709 86.6948 19.4904 86.8743 19.9718C87.0528 20.4532 87.1426 21.0373 87.1426 21.7241C87.1426 23.0578 86.6741 24.0925 85.7375 24.8278C84.8008 25.5637 83.389 25.9317 81.5021 25.9317C80.8686 25.9317 80.2968 25.8936 79.7872 25.818C79.2776 25.742 78.8266 25.6493 78.434 25.5396C78.0417 25.4297 77.7039 25.3129 77.4213 25.1892C77.1391 25.0652 76.9016 24.9486 76.7086 24.8382L77.6181 22.2813C78.0445 22.5154 78.5715 22.7247 79.1988 22.9099C79.8251 23.0959 80.5932 23.1887 81.5021 23.1887Z" fill="white"/>
<path d="M101.342 11.3516V14.0946H97.0242V25.6428H93.8012V14.0946H89.4827V11.3516H101.342Z" fill="white"/>
<path d="M104.922 25.6431H108.146V11.3516H104.922V25.6431Z" fill="white"/>
<path d="M122.573 25.6428C121.65 24.0069 120.652 22.3918 119.578 20.7965C118.502 19.2015 117.359 17.6963 116.148 16.2801V25.6428H112.966V11.3516H115.59C116.044 11.8049 116.547 12.3617 117.098 13.0218C117.649 13.6819 118.209 14.3867 118.782 15.1358C119.353 15.885 119.921 16.6618 120.486 17.4659C121.051 18.2701 121.581 19.0432 122.077 19.7858V11.3516H125.28V25.6428H122.573Z" fill="white"/>
<path d="M137.083 13.8263C135.582 13.8263 134.497 14.2421 133.829 15.0738C133.16 15.9058 132.827 17.043 132.827 18.4871C132.827 19.1876 132.909 19.824 133.074 20.3944C133.24 20.9645 133.488 21.4559 133.818 21.8686C134.149 22.2812 134.562 22.601 135.058 22.8279C135.554 23.0546 136.132 23.168 136.793 23.168C137.151 23.168 137.458 23.161 137.713 23.1475C137.968 23.134 138.191 23.1065 138.384 23.065V18.0952H141.608V25.1686C141.222 25.3201 140.603 25.4813 139.748 25.6528C138.894 25.8244 137.84 25.911 136.587 25.911C135.513 25.911 134.538 25.7457 133.664 25.4161C132.788 25.0857 132.041 24.6049 131.422 23.9722C130.803 23.3401 130.324 22.563 129.986 21.6419C129.648 20.7214 129.48 19.6695 129.48 18.4871C129.48 17.2907 129.666 16.2322 130.038 15.3108C130.41 14.39 130.918 13.6092 131.567 12.9701C132.214 12.3309 132.974 11.8463 133.85 11.5165C134.724 11.1863 135.657 11.0208 136.648 11.0208C137.324 11.0208 137.933 11.066 138.477 11.1551C139.021 11.2448 139.489 11.3478 139.882 11.4648C140.274 11.5813 140.599 11.7016 140.853 11.8256C141.109 11.9493 141.29 12.0459 141.401 12.1145L140.471 14.692C140.031 14.4584 139.523 14.256 138.953 14.0838C138.381 13.9119 137.758 13.8263 137.083 13.8263Z" fill="white"/>
<path d="M146.117 25.6428V11.3516H155.787V14.053H149.341V16.8573H155.064V19.4974H149.341V22.9414H156.262V25.6428H146.117Z" fill="white"/>
<path fill-rule="evenodd" clip-rule="evenodd" d="M169.284 12.3305C168.141 11.5673 166.495 11.186 164.346 11.186C163.754 11.186 163.082 11.2134 162.332 11.2688C161.581 11.3233 160.854 11.4202 160.153 11.5569V25.6425H163.375V20.4245H164.966C165.243 20.755 165.519 21.1226 165.796 21.5286C166.072 21.934 166.354 22.3631 166.636 22.8171C166.92 23.2709 167.195 23.7386 167.466 24.2197C167.734 24.701 168.001 25.175 168.264 25.6425H171.866C171.619 25.1203 171.351 24.5876 171.061 24.0441C170.772 23.5013 170.473 22.9791 170.162 22.4774C169.853 21.9756 169.538 21.4943 169.222 21.0335C168.905 20.573 168.603 20.1641 168.313 19.8063C169.182 19.4493 169.845 18.9573 170.307 18.3321C170.769 17.7066 170.999 16.8914 170.999 15.8881C170.999 14.2793 170.427 13.0936 169.284 12.3305ZM163.902 13.9495C164.088 13.936 164.298 13.929 164.532 13.929C165.565 13.929 166.347 14.0769 166.877 14.3719C167.408 14.6684 167.673 15.1661 167.673 15.8674C167.673 16.5964 167.412 17.1123 166.888 17.4143C166.364 17.717 165.497 17.8675 164.285 17.8675H163.375V13.9907C163.541 13.9775 163.716 13.9636 163.902 13.9495Z" fill="white"/>
<path d="M51.5929 11.467H54.8354V25.708H51.5929V19.6664H46.1474V25.708H42.9048V11.467H46.1474V16.9124H51.5929V11.467Z" fill="white"/>
<path fill-rule="evenodd" clip-rule="evenodd" d="M20.7766 1.5V11.6843L29.0765 16.4963V5.69396L20.7766 1.5ZM-0.192034 1.5005V17.482H26.8016L18.5887 13.0071L7.88984 13.0019V5.80147L-0.192034 1.5005ZM20.7766 31.2177V24.0793L9.99528 24.0718C10.0053 24.1194 1.646 19.5255 1.646 19.5255L29.0763 19.6539V35.6351L20.7766 31.2177ZM-0.192034 20.7741L-0.192322 31.2177L7.88984 35.4114V25.4723L-0.192034 20.7741Z" fill="#6741C9"/>
</g>
<defs>
<clipPath id="clip0_1_4370">
<rect width="173" height="35" fill="white" transform="translate(0.0391235 0.5)"/>
</clipPath>
</defs>
</svg>
