<svg width="199" height="38" viewBox="0 0 199 38" fill="none" xmlns="http://www.w3.org/2000/svg">
<path fill-rule="evenodd" clip-rule="evenodd" d="M85.0592 28.9611L85.6187 28.2171C85.9917 28.0311 85.9917 27.6591 85.9917 27.2871C85.9917 26.9151 85.9917 26.5431 85.4322 26.1711C85.2457 25.7991 84.8727 25.6131 84.3133 25.4271C82.4853 25.0275 80.68 24.5308 78.9052 23.9392L76.8538 22.6372C76.1079 22.2652 75.7349 21.7072 75.3619 21.1492L74.8024 18.9173C74.8024 17.9873 74.9889 17.2433 75.3619 16.6853C75.7349 15.9413 76.2943 15.1973 77.0403 14.8253C77.5997 14.2673 78.5322 13.7093 79.2781 13.5233C81.0314 12.9281 82.9329 12.9281 84.6862 13.5233C85.4322 13.5233 86.1781 13.8953 86.9241 14.4533L88.416 15.9413C88.9754 16.4993 89.1619 17.2433 89.3484 17.8013L85.4322 18.9173C85.4322 18.3593 84.8727 17.8013 84.3133 17.4293C83.6677 16.9463 82.8824 16.6853 82.0754 16.6853C81.3093 16.597 80.5336 16.726 79.8376 17.0573L79.0916 17.8013L78.7187 18.7313L79.0916 19.6612L80.0241 20.4052L81.143 20.7772L82.2619 21.1492L85.9917 22.2652L88.416 23.5672C88.9754 24.1252 89.3484 24.6832 89.5349 25.4271C89.9079 25.7991 89.9079 26.5431 89.9079 27.2871C89.9079 28.2171 89.9079 29.1471 89.3484 29.7051C88.9754 30.4491 88.416 31.193 87.67 31.751C86.9241 32.309 85.9917 32.867 85.0592 33.053C84.1268 33.425 83.0079 33.611 81.8889 33.611C80.0241 33.611 78.5322 33.239 77.0403 32.309C75.7349 31.379 74.8024 30.4491 74.243 28.9611L77.9727 27.4731C78.3457 28.4031 78.9052 28.9611 79.6511 29.3331C80.2106 29.7051 81.143 29.8911 82.0754 29.8911C83.1944 29.8911 83.9403 29.5191 84.8727 28.9611H85.0592ZM103.708 33.053L100.165 33.797C99.0457 33.797 98.1133 33.797 97.1809 33.239C96.2484 32.867 95.5025 32.123 94.943 31.193C94.3836 30.2631 94.1971 28.7751 94.1971 26.9151V17.6153H90.6538V13.3373H91.5863C92.7052 13.3373 93.8241 13.1513 94.3836 12.0354C94.7565 11.6634 94.7565 11.1054 94.7565 9.8034V8.31543H98.4863V13.3373H102.589V17.8013H98.2998V29.1471L99.2322 30.0771L100.724 30.2631H102.962L103.708 33.053ZM116.762 17.0573L116.203 16.6853H115.27L114.711 16.4993C113.148 16.4672 111.627 16.9952 110.421 17.9873L109.303 19.4752C108.93 20.0332 108.93 20.7772 108.93 21.3352V33.797H104.64V13.3373H107.997L108.743 15.7553C109.303 14.8253 110.048 14.2673 110.981 13.8953C112.066 13.2964 113.284 12.9767 114.524 12.9654L117.694 13.3373L116.576 17.0573H116.762ZM127.392 33.611C125.335 33.6055 123.325 33.0051 121.603 31.8826C119.882 30.7602 118.524 29.1638 117.694 27.2871C117.135 25.9851 116.762 24.6832 116.762 23.1952C116.764 21.1911 117.346 19.2302 118.437 17.5477C119.529 15.8652 121.084 14.5324 122.916 13.7093C125.369 12.7265 128.109 12.7265 130.562 13.7093C131.681 14.0813 132.8 14.8253 133.546 15.7553C134.478 16.6853 135.224 17.9873 135.597 19.4752C136.157 21.1492 136.343 22.8232 136.343 25.0551H121.238C121.238 25.7991 121.611 26.3571 122.17 26.9151C122.976 28.1663 124.148 29.1402 125.527 29.7051L127.951 30.0771C129.889 30.0796 131.755 29.3483 133.173 28.0311L135.784 30.4491C134.699 31.4292 133.432 32.1875 132.054 32.681C130.749 33.239 129.07 33.611 127.392 33.611ZM126.646 16.4993C126.086 16.4993 125.34 16.4993 124.781 16.8713C123.587 17.4095 122.604 18.3246 121.984 19.4752C121.611 20.0332 121.238 20.7772 121.238 21.3352H131.867C131.867 20.7772 131.867 20.2192 131.494 19.4752C131.071 18.5178 130.358 17.7162 129.455 17.1827C128.552 16.6491 127.505 16.4102 126.459 16.4993H126.646ZM158.349 13.3373V33.611H154.992L154.246 30.8211C153.686 31.751 152.754 32.495 151.635 32.867C150.516 33.425 149.397 33.611 148.278 33.611C146.926 33.6375 145.583 33.3871 144.332 32.8752C143.081 32.3634 141.949 31.6009 141.005 30.6351C139.046 28.6516 137.948 25.9793 137.948 23.1952C137.948 20.4111 139.046 17.7387 141.005 15.7553C141.962 14.8066 143.097 14.0554 144.345 13.5448C145.593 13.0341 146.929 12.774 148.278 12.7794C149.397 12.7794 150.516 13.1513 151.449 13.5233C152.567 13.8953 153.5 14.6393 154.246 15.3833L154.992 13.3373H158.535H158.349ZM148.278 30.0771L150.516 29.5191C151.262 29.1471 152.008 28.5891 152.381 28.0311C153.594 26.7127 154.26 24.9845 154.246 23.1952C154.225 21.4124 153.563 19.6963 152.381 18.3593C152.008 17.8013 151.262 17.2433 150.516 16.8713C149.792 16.511 148.994 16.3235 148.185 16.3235C147.376 16.3235 146.578 16.511 145.854 16.8713L143.989 18.3593C142.776 19.6777 142.11 21.4059 142.124 23.1952C142.145 24.9779 142.807 26.6941 143.989 28.0311L145.854 29.5191C146.6 29.8911 147.346 30.0771 148.278 30.0771ZM165.622 33.611H161.519V13.1513H164.689L165.622 15.0113C165.995 14.4533 166.74 13.8953 167.486 13.5233C168.046 13.1513 168.978 12.7794 169.911 12.7794C171.552 12.8035 173.134 13.3952 174.386 14.4533L175.692 15.9413C176.065 15.1973 176.811 14.4533 177.743 13.7093C178.682 13.088 179.787 12.7639 180.913 12.7794L183.338 13.1513C184.248 13.4442 185.085 13.9276 185.792 14.5691C186.5 15.2107 187.062 15.9956 187.441 16.8713C187.813 17.9873 188 19.4752 188 21.1492V33.611H184.27V21.1492C184.27 19.2892 183.711 18.1733 182.965 17.4293C182.405 16.8713 181.286 16.4993 180.168 16.4993C179.235 16.4993 178.303 16.8713 177.743 17.6153C177.184 18.3593 176.811 19.4752 176.811 21.1492V33.611H172.895V21.1492C172.895 19.2892 172.522 18.1733 171.776 17.4293C171.03 16.8713 170.097 16.4993 168.978 16.4993C168.046 16.4993 167.3 16.8713 166.74 17.4293C165.995 18.1733 165.622 19.1032 165.622 20.4052V33.425V33.611Z" fill="white"/>
<path fill-rule="evenodd" clip-rule="evenodd" d="M50.2995 13.3978L69.7506 12.0756C71.0598 12.0756 71.9949 13.3978 71.2468 14.3421L57.5937 33.2301C57.2196 33.419 56.8455 33.7967 56.2845 33.7967H25.6116C25.379 33.7683 25.1563 33.6851 24.9614 33.5539C24.7665 33.4227 24.6048 33.2471 24.4894 33.0412L10.8363 14.3421C10.0881 13.3978 10.8363 11.8867 12.1455 12.0756L31.5965 13.3978L39.8258 4.33153C40.3869 3.57601 41.6961 3.57601 42.0702 4.33153L50.2995 13.2089V13.3978ZM54.4142 30.7747L41.6961 26.0527V30.7747H54.4142ZM40.1999 30.7747V26.0527L27.4819 30.7747H40.3869H40.1999ZM38.7037 25.1083L25.7986 29.8303L16.4471 16.6087L38.8907 24.9194L38.7037 25.1083ZM43.1924 25.1083L56.2845 29.8303L65.6359 16.6087L43.1924 24.9194V25.1083ZM40.1999 23.975V8.298L29.7262 20.0085L40.1999 23.7861V23.975ZM41.6961 23.975V8.298L52.3568 20.0085L41.6961 23.7861V23.975ZM26.5467 18.8753L28.9781 16.2309L17.0082 15.4754L26.5467 18.8753ZM55.3493 18.8753L52.9179 16.2309L64.7008 15.4754L55.3493 18.8753Z" fill="#006CFF"/>
</svg>
