<svg width="51" height="51" viewBox="0 0 51 51" fill="none" xmlns="http://www.w3.org/2000/svg">
<circle cx="25.5474" cy="25.5474" r="24.8107" fill="url(#paint0_linear_1_4541)" stroke="url(#paint1_linear_1_4541)" stroke-width="0.526653"/>
<g clip-path="url(#clip0_1_4541)">
<path d="M33.2994 17.8974L30.5951 20.5379C30.5102 20.6208 30.3991 20.6734 30.2799 20.6873C30.1606 20.7013 30.04 20.6757 29.9374 20.6147C28.8737 19.9881 27.6468 19.6756 26.4051 19.7149C25.1634 19.7542 23.9599 20.1437 22.94 20.8363C22.3127 21.2627 21.768 21.7945 21.3313 22.407C20.6228 23.4036 20.2243 24.5787 20.1837 25.7912C20.1432 27.0037 20.4622 28.2017 21.1026 29.2413C21.1646 29.3413 21.1905 29.4587 21.1763 29.5748C21.162 29.6909 21.1084 29.7989 21.0239 29.8818L18.3197 32.5223C18.2652 32.5758 18.1995 32.6172 18.1272 32.6436C18.0548 32.6701 17.9775 32.6809 17.9004 32.6755C17.8233 32.67 17.7484 32.6484 17.6807 32.612C17.613 32.5756 17.5542 32.5254 17.5082 32.4647C16.045 30.5009 15.2889 28.1194 15.3577 25.6919C15.4266 23.2644 16.3166 20.9274 17.8889 19.0457C18.3689 18.47 18.9079 17.9437 19.4975 17.4751C21.4244 15.9403 23.8175 15.0715 26.3032 15.0042C28.789 14.937 31.2276 15.6751 33.2386 17.1033C33.3012 17.148 33.353 17.2055 33.3906 17.2717C33.4282 17.3378 33.4507 17.4112 33.4565 17.4867C33.4623 17.5622 33.4512 17.638 33.4241 17.7089C33.397 17.7798 33.3544 17.8441 33.2994 17.8974Z" fill="url(#paint2_linear_1_4541)"/>
<path d="M33.2971 34.0932L30.5928 31.4527C30.5078 31.3698 30.3968 31.3172 30.2776 31.3033C30.1583 31.2893 30.0377 31.3149 29.9351 31.3759C28.9321 31.9667 27.7829 32.279 26.6116 32.279C25.4401 32.279 24.291 31.9667 23.288 31.3759C23.1854 31.3149 23.0648 31.2893 22.9455 31.3033C22.8262 31.3172 22.7152 31.3698 22.6302 31.4527L19.926 34.0932C19.8693 34.1464 19.8252 34.2112 19.797 34.2829C19.7688 34.3546 19.7571 34.4315 19.7628 34.5081C19.7684 34.5848 19.7912 34.6592 19.8296 34.7262C19.868 34.7933 19.921 34.8512 19.985 34.896C21.9099 36.2635 24.2292 37.0002 26.6098 37.0002C28.9903 37.0002 31.3096 36.2635 33.2346 34.896C33.2987 34.8515 33.352 34.7938 33.3908 34.7268C33.4295 34.6599 33.4527 34.5856 33.4587 34.5089C33.4646 34.4323 33.4532 34.3553 33.4253 34.2835C33.3974 34.2117 33.3536 34.1467 33.2971 34.0932Z" fill="white"/>
<path d="M26.6165 29.137C28.3932 29.137 29.8337 27.7306 29.8337 25.9956C29.8337 24.2607 28.3932 22.8542 26.6165 22.8542C24.8396 22.8542 23.3992 24.2607 23.3992 25.9956C23.3992 27.7306 24.8396 29.137 26.6165 29.137Z" fill="white"/>
</g>
<defs>
<linearGradient id="paint0_linear_1_4541" x1="11.1254" y1="1" x2="48.4914" y2="9.89991" gradientUnits="userSpaceOnUse">
<stop stop-color="#04071D"/>
<stop offset="1" stop-color="#0C0E23"/>
</linearGradient>
<linearGradient id="paint1_linear_1_4541" x1="25.5474" y1="1" x2="25.5474" y2="50.0948" gradientUnits="userSpaceOnUse">
<stop stop-color="#66699C" stop-opacity="0.43"/>
<stop offset="1" stop-color="#363749" stop-opacity="0.49"/>
</linearGradient>
<linearGradient id="paint2_linear_1_4541" x1="30.7578" y1="13.3878" x2="8.49522" y2="36.1895" gradientUnits="userSpaceOnUse">
<stop stop-color="#17CCFC"/>
<stop offset="0.5" stop-color="#5D31FF"/>
<stop offset="1" stop-color="#F35AFF"/>
</linearGradient>
<clipPath id="clip0_1_4541">
<rect width="20.9" height="22" fill="white" transform="translate(15.3534 15)"/>
</clipPath>
</defs>
</svg>
